<svg version="1.1" id="Layer_1" xmlns="http://www.w3.org/2000/svg" xmlns:xlink="http://www.w3.org/1999/xlink" x="0px" y="0px"
	 width="100%" viewBox="0 0 1093 704" enable-background="new 0 0 1093 704" xml:space="preserve">
<path fill="#000000" opacity="1.000000" stroke="none" 
	d="
M675.000000,705.000000 
	C450.000000,705.000000 225.500031,705.000000 1.000030,705.000000 
	C1.000020,470.333374 1.000020,235.666718 1.000010,1.000062 
	C365.333282,1.000041 729.666565,1.000041 1094.000000,1.000021 
	C1094.000000,235.666611 1094.000000,470.333221 1094.000000,704.999878 
	C954.500000,705.000000 815.000000,705.000000 675.000000,705.000000 
M244.746628,339.549530 
	C244.826096,310.765869 244.912308,281.982239 244.943893,253.198532 
	C244.944641,252.521667 244.332764,251.844116 243.076218,251.040024 
	C236.488480,251.040024 229.900742,251.040024 223.031296,251.040024 
	C223.031296,280.437042 223.005371,309.072266 223.132004,337.706757 
	C223.136749,338.781982 224.624878,340.777344 225.417953,340.775421 
	C231.634109,340.760376 237.849319,340.361969 244.746628,339.549530 
M244.745667,404.550507 
	C244.825409,386.098816 244.915619,367.647186 244.943237,349.195404 
	C244.944244,348.519501 244.332214,347.842682 243.075409,347.039124 
	C209.504105,347.039124 175.932785,347.039124 142.300507,347.039124 
	C142.300507,366.996277 142.300507,386.237915 142.300507,405.739594 
	C143.526657,405.837830 144.493668,405.982605 145.460739,405.983032 
	C177.109451,405.996246 208.758163,406.005737 240.406799,405.958313 
	C241.625992,405.956482 242.844330,405.387146 244.745667,404.550507 
M519.500000,265.001038 
	C502.423096,265.001038 485.346222,265.001038 468.345764,265.001038 
	C468.345764,290.086304 468.345764,314.332367 468.345764,339.063049 
	C481.270081,339.063049 493.858551,339.063049 506.617004,339.063049 
	C506.617004,349.587738 506.617004,359.620514 506.617004,370.134766 
	C485.988098,370.134766 465.737000,370.134766 445.420685,370.134766 
	C445.420685,376.330994 445.420685,382.031494 445.420685,387.998016 
	C447.494873,387.998016 449.148865,387.998016 450.802887,387.998016 
	C495.792267,387.997986 540.781616,387.998322 585.770996,387.996033 
	C586.937012,387.995972 588.226562,388.274139 589.234924,387.867798 
	C590.281433,387.446075 591.788940,386.383972 591.829041,385.541626 
	C592.070862,380.464081 591.949219,375.369202 591.949219,369.836029 
	C570.644287,369.836029 550.057922,369.836029 529.424194,369.836029 
	C529.424194,359.324249 529.424194,349.290497 529.424194,338.778320 
	C543.432312,338.778320 557.019714,338.778320 570.998718,338.778320 
	C570.998718,334.490448 570.728882,330.662445 571.067688,326.889130 
	C571.480591,322.290344 569.861755,320.857208 565.182251,320.901550 
	C541.856567,321.122650 518.527588,321.002319 495.199738,321.002228 
	C493.267975,321.002197 491.336182,321.002228 489.280426,321.002228 
	C489.280426,308.049408 489.280426,295.801819 489.280426,282.894043 
	C515.589355,282.894043 541.626648,282.894043 567.682678,282.894043 
	C567.682678,276.645386 567.682678,271.063477 567.682678,265.001038 
	C551.747253,265.001038 536.123596,265.001038 519.500000,265.001038 
M781.488342,254.999954 
	C751.753235,254.999954 722.018066,254.999954 692.341797,254.999954 
	C692.341797,274.076355 692.341797,292.321106 692.341797,311.229431 
	C705.709595,311.229431 718.747498,311.229431 731.607178,311.229431 
	C731.607178,315.819702 731.607178,319.736267 731.607178,324.127197 
	C710.991577,324.127197 690.744202,324.127197 670.416138,324.127197 
	C670.416138,330.320770 670.416138,336.020721 670.416138,341.671295 
	C719.400452,341.671295 767.968994,341.671295 816.562866,341.671295 
	C816.562866,335.633911 816.562866,329.933075 816.562866,323.766296 
	C795.547729,323.766296 774.965088,323.766296 754.286865,323.766296 
	C754.286865,319.365662 754.286865,315.448944 754.286865,310.874390 
	C767.935364,310.874390 781.312134,310.874390 794.678162,310.874390 
	C794.678162,291.964813 794.678162,273.720612 794.678162,254.999954 
	C790.408081,254.999954 786.445679,254.999954 781.488342,254.999954 
M279.838440,334.052582 
	C279.265045,334.527924 278.204987,334.991577 278.193237,335.480347 
	C278.071381,340.560455 278.118195,345.644623 278.118195,350.699463 
	C327.372803,350.699463 375.928314,350.699463 424.593872,350.699463 
	C424.593872,345.028168 424.593872,339.662354 424.593872,333.844360 
	C403.609558,333.844360 383.027191,333.844360 362.412750,333.844360 
	C362.412750,331.001221 362.412750,328.632324 362.412750,327.470795 
	C372.131165,325.222168 381.336914,323.593597 390.210480,320.879089 
	C397.211914,318.737244 403.024170,314.249969 403.901917,306.242065 
	C404.899567,297.140747 401.325653,291.699585 392.773651,287.339539 
	C384.085938,282.910339 374.642914,281.640076 365.156067,281.104065 
	C356.523895,280.616302 347.751617,280.216522 339.206512,281.206177 
	C329.362061,282.346344 319.355927,284.083313 310.060608,287.371826 
	C301.905975,290.256836 296.402466,298.230652 299.190979,307.890594 
	C301.792572,316.902832 309.323212,320.932831 317.793457,322.897827 
	C325.259094,324.629761 332.904266,325.587616 340.590881,326.908020 
	C340.590881,328.974487 340.590881,331.338470 340.590881,334.012543 
	C320.386230,334.012543 300.585876,334.012543 279.838440,334.052582 
M964.000061,393.495239 
	C964.000061,372.427582 964.000061,351.359894 964.000061,329.940674 
	C971.412720,329.940674 978.057800,330.077820 984.688721,329.832458 
	C986.126221,329.779266 988.670654,328.434723 988.733398,327.545807 
	C989.113953,322.155457 988.923035,316.724731 988.923035,310.838501 
	C980.273010,310.838501 972.358276,310.838501 963.811829,310.838501 
	C963.811829,290.656372 963.811829,270.962311 963.811829,251.344360 
	C956.580139,251.344360 950.000732,251.344360 943.394653,251.344360 
	C943.394653,304.017181 943.394653,356.345490 943.394653,408.679352 
	C950.372986,408.679352 956.951904,408.679352 964.000061,408.679352 
	C964.000061,403.743866 964.000061,399.118347 964.000061,393.495239 
M847.456116,348.023499 
	C842.473999,351.585205 837.491943,355.146942 832.034851,359.048187 
	C833.792480,360.608765 835.382690,362.072418 837.029968,363.468658 
	C838.658264,364.848694 840.465698,366.036743 841.983276,367.524536 
	C848.036316,373.458954 848.002808,373.486420 854.401978,368.114563 
	C856.291443,366.528381 858.279236,365.051208 860.091675,363.382538 
	C869.886414,354.365143 878.255371,344.188599 884.742859,331.891479 
	C892.889893,347.032928 904.459961,358.177429 917.510315,367.927246 
	C918.514709,368.677673 920.773987,369.455688 921.196655,369.015961 
	C925.938416,364.083527 931.869080,360.153320 934.870911,354.309479 
	C929.899658,350.776306 925.270020,347.687622 920.859741,344.312408 
	C909.212524,335.398682 902.326477,323.307281 897.963989,309.551514 
	C893.711731,296.143555 895.300415,282.332581 895.006958,268.649902 
	C894.954895,266.224274 894.999573,263.796600 894.999573,261.287659 
	C887.688171,261.287659 881.109375,261.287659 874.000488,261.287659 
	C874.000488,270.514404 874.187866,279.466248 873.934387,288.405609 
	C873.766724,294.317322 873.492371,300.315094 872.349731,306.093201 
	C869.071228,322.671967 859.803589,335.894897 847.456116,348.023499 
M389.248749,402.926392 
	C390.721527,402.186157 392.161957,401.371124 393.672485,400.718231 
	C401.702362,397.247650 405.649292,390.426971 405.666779,382.419006 
	C405.684723,374.203033 401.398804,367.814941 393.492340,363.648987 
	C381.658783,357.413757 368.846985,356.957123 356.129517,356.155701 
	C348.244171,355.658783 340.093781,355.785553 332.370300,357.253082 
	C323.656891,358.908722 314.545410,361.066650 306.938995,365.363800 
	C294.438934,372.425507 293.401733,388.738007 304.294067,397.487488 
	C308.610596,400.954834 314.231079,403.266541 319.626953,404.832611 
	C334.292023,409.088928 349.496216,408.506317 364.499664,407.769745 
	C372.554413,407.374268 380.499542,404.745911 389.248749,402.926392 
M162.452301,275.999023 
	C166.035568,275.999023 169.618835,275.999023 174.365570,275.999023 
	C161.607849,303.188660 140.229614,318.849792 113.446404,328.761475 
	C118.702301,334.552612 123.361923,339.686768 127.912079,344.700256 
	C170.071030,327.209351 199.523087,287.107086 199.448181,258.381378 
	C174.415878,258.381378 149.385025,258.381378 124.312012,258.381378 
	C124.312012,264.347290 124.312012,269.927032 124.312012,275.998749 
	C136.900085,275.998749 149.183899,275.998749 162.452301,275.999023 
M774.000854,387.501617 
	C774.000854,394.585999 774.000854,401.670410 774.000854,408.644165 
	C781.435242,408.644165 788.018616,408.644165 794.714111,408.644165 
	C794.714111,389.708221 794.714111,371.128326 794.714111,352.275970 
	C759.380066,352.275970 724.331665,352.275970 689.388062,352.275970 
	C689.388062,358.231354 689.388062,363.954193 689.388062,370.144836 
	C717.688416,370.144836 745.604126,370.144836 774.000854,370.144836 
	C774.000854,375.913696 774.000854,381.208191 774.000854,387.501617 
M259.619293,559.961548 
	C268.535522,559.291138 276.635834,556.660339 283.239502,550.296936 
	C283.892029,549.668091 284.937561,549.108154 285.807861,549.097473 
	C293.401947,549.004333 300.997681,549.043640 309.059570,549.043640 
	C309.059570,554.943359 309.059570,560.202087 309.059570,565.623413 
	C312.581482,565.623413 315.609924,565.623413 318.723480,565.623413 
	C318.723480,542.348206 318.723480,519.449158 318.723480,496.379730 
	C315.410156,496.379730 312.380371,496.379730 308.873596,496.379730 
	C308.873596,501.005005 308.873596,505.262756 308.873596,509.977997 
	C300.949371,509.977997 293.498016,510.020203 286.048798,509.913391 
	C285.295776,509.902618 284.433197,509.109985 283.827820,508.481415 
	C274.777252,499.083466 263.570312,496.712189 251.362030,499.420105 
	C240.016617,501.936676 229.872604,513.004517 229.068268,523.099915 
	C227.853195,538.350464 231.094498,550.010620 245.635651,556.138611 
	C249.790909,557.889709 254.369034,558.637329 259.619293,559.961548 
M834.068420,523.544617 
	C832.847351,520.012085 832.291870,516.036682 830.287842,513.025085 
	C822.402649,501.174896 811.002930,497.617126 797.268372,499.944092 
	C778.241455,503.167664 770.208374,519.234924 773.581299,536.058228 
	C777.981812,558.006287 804.635193,564.329773 821.298523,554.167908 
	C828.776917,549.607361 832.716553,542.638428 834.315308,534.273438 
	C840.572266,534.273438 846.503662,534.273438 853.087280,534.273438 
	C853.087280,543.913391 853.087280,553.298157 853.087280,562.696289 
	C856.667297,562.696289 859.587280,562.696289 862.603027,562.696289 
	C862.603027,540.356689 862.603027,518.322021 862.603027,496.330383 
	C859.277466,496.330383 856.358948,496.330383 852.790588,496.330383 
	C852.790588,506.025146 852.790588,515.404907 852.790588,525.274414 
	C846.170776,524.962524 840.229919,524.682617 834.068420,523.544617 
M291.000885,265.629242 
	C291.000885,269.245575 291.000885,272.861908 291.000885,276.639954 
	C331.586029,276.639954 371.594391,276.639954 411.997467,276.639954 
	C411.997467,272.484985 411.819000,268.670074 412.048492,264.879852 
	C412.270996,261.204712 410.916321,259.875610 407.183105,259.937195 
	C396.196167,260.118378 385.204315,260.000977 374.214386,260.000580 
	C370.277191,260.000427 366.339996,260.000549 361.788025,260.000549 
	C361.788025,255.616531 361.788025,251.904953 361.788025,248.353302 
	C354.559845,248.353302 347.974213,248.353302 340.919922,248.353302 
	C340.919922,252.288223 340.919922,255.876068 340.919922,259.925079 
	C324.203217,259.925079 307.958130,259.925079 291.364105,259.925079 
	C291.220764,261.802216 291.111084,263.238739 291.000885,265.629242 
M700.501160,154.999069 
	C720.944031,154.479599 741.386841,153.960129 762.061157,153.434769 
	C761.432678,149.549896 761.019409,146.995163 760.697388,145.004776 
	C749.138123,145.004776 737.846863,145.004776 726.385681,145.004776 
	C726.385681,140.458572 725.512939,135.111008 726.828491,130.370743 
	C727.333069,128.552719 732.821472,128.088226 736.056763,127.063354 
	C745.166565,124.177597 749.784363,117.323067 750.594727,108.442924 
	C751.285278,100.875755 747.351013,94.709335 740.671204,90.970802 
	C727.990906,83.873917 714.921265,84.016151 701.919189,90.068916 
	C692.485046,94.460701 688.141907,104.695877 691.932983,114.803108 
	C695.318542,123.829178 702.739014,127.406906 711.604126,129.103607 
	C713.188599,129.406860 715.652710,130.891953 715.775208,132.038162 
	C716.259521,136.571060 715.974060,141.186203 715.974060,146.199234 
	C703.879578,146.199234 692.608826,146.199234 681.404419,146.199234 
	C680.482666,154.657379 680.772339,154.995987 688.504211,154.999573 
	C692.170227,155.001282 695.836182,154.999405 700.501160,154.999069 
M368.500000,59.999271 
	C353.415192,59.999271 338.330414,59.999271 323.339508,59.999271 
	C323.339508,63.404636 323.339508,65.994629 323.339508,69.226273 
	C344.707458,69.226273 365.746429,69.226273 386.204987,69.226273 
	C386.204987,80.429695 386.204987,90.965141 386.204987,102.138733 
	C358.704742,102.138733 331.992554,102.138733 305.322510,102.138733 
	C305.322510,105.373688 305.322510,107.962723 305.322510,110.592720 
	C342.014130,110.592720 378.383514,110.592720 414.655151,110.592720 
	C414.655151,107.585670 414.655151,104.999031 414.655151,101.940781 
	C408.399353,101.940781 402.471161,101.940781 396.499939,101.940781 
	C396.499939,87.798485 396.499939,74.140862 396.499939,59.999271 
	C387.417480,59.999271 378.458740,59.999271 368.500000,59.999271 
M397.000427,165.307892 
	C397.000427,152.384659 397.000427,139.461426 397.000427,126.343933 
	C372.094269,126.343933 347.761566,126.343933 323.001038,126.343933 
	C323.001038,139.958679 323.173065,153.236938 322.905853,166.506332 
	C322.814758,171.027710 324.442444,172.117371 328.688507,172.080704 
	C349.478607,171.901108 370.272217,171.886719 391.061890,172.088898 
	C395.531616,172.132370 397.778168,171.024918 397.000427,165.307892 
M491.000183,80.498100 
	C491.000183,74.412460 491.000183,68.326820 491.000183,62.344955 
	C472.897461,62.344955 455.642426,62.344955 438.274109,62.344955 
	C438.274109,65.277985 438.274109,67.864044 438.274109,71.108566 
	C452.579102,71.108566 466.628021,71.108566 480.683960,71.108566 
	C480.683960,77.024353 480.683960,82.273674 480.683960,88.184349 
	C466.333954,88.184349 452.289551,88.184349 438.357941,88.184349 
	C438.357941,101.104568 438.357941,113.354523 438.357941,126.481461 
	C459.702850,125.903839 480.663330,125.336624 501.902893,124.761856 
	C501.902893,121.577553 502.324951,119.630516 501.765381,118.025810 
	C501.340454,116.807251 499.665192,115.193375 498.548370,115.194977 
	C494.284729,115.201065 490.025024,116.060356 485.758179,116.110008 
	C473.364685,116.254234 460.968384,116.161133 448.382446,116.161133 
	C448.382446,110.079788 448.382446,103.712173 448.382446,96.860336 
	C462.680115,96.860336 476.600708,96.860336 491.000183,96.860336 
	C491.000183,91.419128 491.000183,86.457458 491.000183,80.498100 
M593.011597,142.215683 
	C593.007141,131.557205 592.819397,120.894119 593.087463,110.242508 
	C593.196350,105.918434 591.551575,104.494583 587.548889,104.992226 
	C586.134338,105.168091 584.706421,105.236069 582.841614,105.389839 
	C582.841614,118.707336 582.841614,131.622284 582.841614,145.174164 
	C573.323730,145.174164 564.270935,145.174164 555.354736,145.174164 
	C555.354736,148.749588 555.354736,151.669495 555.354736,154.987823 
	C557.342224,154.987823 558.978027,154.987823 560.613770,154.987823 
	C593.255554,154.987839 625.897400,154.990295 658.539185,154.985794 
	C665.114624,154.984894 665.123230,154.972549 664.984375,148.264374 
	C664.964722,147.317307 664.812500,146.372971 664.662476,144.812088 
	C650.669678,144.812088 636.962646,144.812088 622.998840,144.812088 
	C622.998840,133.014938 622.765991,121.861328 623.106995,110.725281 
	C623.254822,105.897301 621.470337,104.363800 617.031799,104.997246 
	C615.781921,105.175613 614.522888,105.289566 612.829468,105.483238 
	C612.829468,118.721466 612.829468,131.636108 612.829468,144.952225 
	C606.557678,144.952225 600.763794,145.009018 594.974365,144.873535 
	C594.320618,144.858246 593.692200,143.758759 593.011597,142.215683 
M244.408096,592.871460 
	C246.676453,603.357849 254.170731,608.797485 263.769806,610.773193 
	C271.920471,612.450806 280.431519,612.577087 288.802460,612.925720 
	C296.469879,613.244934 303.877869,611.466492 310.563751,607.682739 
	C317.428253,603.797791 322.382233,598.601257 322.090698,589.738831 
	C321.817322,581.428101 317.508240,576.420166 310.547668,572.843872 
	C294.266785,564.479065 277.386719,565.327820 260.640320,570.366089 
	C249.362061,573.759155 243.889008,581.965881 244.408096,592.871460 
M703.005920,516.578491 
	C703.393494,513.570312 703.781006,510.562195 704.186157,507.417694 
	C684.987854,507.417694 666.610962,507.417694 648.351929,507.417694 
	C648.351929,510.429169 648.351929,513.018738 648.351929,516.218994 
	C663.392029,516.218994 678.090454,516.218994 693.166504,516.218994 
	C688.038269,546.966003 669.297058,566.077271 643.449463,579.023254 
	C646.024353,581.947205 648.318542,584.552429 650.609436,587.153870 
	C664.260559,579.195374 676.326904,569.948547 685.872009,557.646973 
	C695.109314,545.742004 701.123352,532.495728 703.005920,516.578491 
M360.851105,527.500427 
	C362.257446,529.854675 363.364197,532.464661 365.119720,534.520813 
	C375.097717,546.206909 399.424042,546.395996 410.686096,536.791321 
	C420.853180,528.120483 421.023926,514.487366 411.224121,505.692505 
	C402.161652,497.559387 391.609253,496.997894 380.290588,498.913574 
	C368.088715,500.978699 355.586395,511.902496 360.851105,527.500427 
M638.770325,76.882851 
	C638.413086,94.833145 638.055847,112.783432 637.692505,131.041962 
	C640.695923,131.041962 643.619507,131.041962 647.787048,131.041962 
	C648.333191,109.934891 648.883057,88.682663 649.437195,67.266960 
	C622.042175,67.266960 595.803467,67.266960 569.370422,67.266960 
	C569.370422,70.236458 569.370422,72.932129 569.370422,75.999763 
	C571.709473,75.999763 573.682617,75.993790 575.655762,76.000687 
	C596.468262,76.073479 617.280823,76.148323 638.770325,76.882851 
M532.585205,537.142151 
	C521.523438,524.513855 507.569427,523.703857 492.883118,528.244019 
	C483.969055,530.999695 477.842163,537.372620 477.119019,547.160339 
	C476.459717,556.083923 481.140991,562.499817 488.562439,567.021423 
	C496.009155,571.558411 504.366547,571.782166 512.535461,570.866394 
	C529.690796,568.942993 542.167236,553.660461 532.585205,537.142151 
M431.213409,567.990845 
	C423.943115,567.990845 416.672821,567.990845 409.259460,567.990845 
	C409.259460,571.253479 409.259460,573.837891 409.259460,577.074341 
	C417.545288,577.074341 425.595947,577.074341 433.698059,577.074341 
	C433.936981,581.342896 432.913483,585.880981 434.722687,588.302795 
	C436.224091,590.312622 441.061035,589.830627 444.575928,590.481262 
	C444.575928,558.284241 444.575928,527.262939 444.575928,496.341370 
	C440.892242,496.341370 437.635071,496.341370 433.981598,496.341370 
	C433.981598,498.477783 433.981598,500.278748 433.981598,502.079742 
	C433.981415,522.395447 434.023224,542.711365 433.902222,563.026367 
	C433.892395,564.671143 432.766632,566.309143 431.213409,567.990845 
M736.999512,605.431152 
	C736.999512,569.038940 736.999512,532.646729 736.999512,496.343597 
	C733.254150,496.343597 730.332520,496.343597 727.413391,496.343597 
	C727.413391,535.709045 727.413391,574.730835 727.413391,613.652588 
	C730.752686,613.652588 733.674561,613.652588 736.999512,613.652588 
	C736.999512,611.008667 736.999512,608.707214 736.999512,605.431152 
M779.000183,121.500000 
	C779.000183,99.761299 779.000183,78.022606 779.000183,56.327850 
	C775.283142,56.327850 772.365173,56.327850 769.396606,56.327850 
	C769.396606,95.673439 769.396606,134.691269 769.396606,173.673538 
	C772.719971,173.673538 775.638123,173.673538 779.000183,173.673538 
	C779.000183,156.401123 779.000183,139.450562 779.000183,121.500000 
M853.000488,582.654419 
	C853.000488,592.928040 853.000488,603.201721 853.000488,613.611389 
	C856.604309,613.611389 859.633118,613.611389 862.696411,613.611389 
	C862.696411,598.318359 862.696411,583.415161 862.696411,568.369995 
	C837.039795,568.369995 811.687256,568.369995 786.298462,568.369995 
	C786.298462,571.329468 786.298462,573.915527 786.298462,576.951416 
	C808.491516,576.951416 830.394775,576.951416 852.640381,576.951416 
	C852.781860,578.816711 852.890930,580.254333 853.000488,582.654419 
M552.999939,569.493408 
	C552.999939,574.246704 552.999939,579.000061 552.999939,583.669800 
	C556.724854,583.669800 559.643738,583.669800 563.192505,583.669800 
	C563.192505,572.318604 563.192505,561.287781 563.192505,549.807861 
	C569.420593,549.807861 575.007996,549.807861 580.745056,549.807861 
	C580.745056,546.752441 580.745056,544.169678 580.745056,540.936890 
	C574.804993,540.936890 569.092590,540.936890 562.768433,540.936890 
	C562.768433,525.602295 562.768433,510.908569 562.768433,496.359192 
	C559.213989,496.359192 556.297424,496.359192 552.999939,496.359192 
	C552.999939,520.641663 552.999939,544.568359 552.999939,569.493408 
M513.001099,109.500000 
	C513.001099,120.578529 513.001099,131.657059 513.001099,142.661453 
	C516.724365,142.661453 519.639526,142.661453 523.199829,142.661453 
	C523.199829,128.968704 523.199829,115.601479 523.199829,101.805656 
	C529.451599,101.805656 535.048706,101.805656 540.578003,101.805656 
	C541.625854,93.035370 541.596985,93.002304 533.279785,93.000168 
	C530.004700,92.999329 526.729553,93.000031 522.836548,93.000031 
	C522.836548,80.333359 522.836548,68.293274 522.836548,56.335388 
	C519.269592,56.335388 516.349426,56.335388 513.001099,56.335388 
	C513.001099,73.943840 513.001099,91.221924 513.001099,109.500000 
M392.500000,610.999634 
	C410.911072,610.999634 429.322113,610.999634 447.657715,610.999634 
	C448.408783,602.002930 448.408783,602.000488 440.560272,601.999878 
	C421.247406,601.998352 401.934509,601.999207 382.621643,601.999146 
	C380.865387,601.999146 379.109131,601.999207 376.883789,601.999207 
	C376.883789,592.666870 376.883789,584.079285 376.883789,575.403198 
	C373.366852,575.403198 370.337524,575.403198 367.321777,575.403198 
	C367.321777,587.381897 367.321777,598.956238 367.321777,610.999634 
	C375.591492,610.999634 383.545746,610.999634 392.500000,610.999634 
M410.351349,551.000549 
	C389.989380,551.470337 369.627380,551.940063 349.307159,552.408813 
	C348.499237,561.723938 348.839508,562.132202 357.627594,561.966003 
	C359.254547,561.935242 360.872406,561.340820 362.497833,561.323669 
	C369.563293,561.249023 376.630005,561.291626 383.981628,561.291626 
	C383.981628,568.287231 384.151306,574.772400 383.917236,581.242859 
	C383.779327,585.054688 385.315674,586.408386 388.915253,586.012512 
	C390.496826,585.838501 392.094788,585.813904 394.134705,585.695374 
	C394.134705,576.986267 394.134705,568.735291 394.134705,560.395447 
	C405.278961,559.833069 415.954926,559.294250 426.734009,558.750305 
	C426.734009,555.728882 426.734009,553.143005 426.734009,549.740234 
	C421.377899,550.177856 416.345215,550.589111 410.351349,551.000549 
M450.002319,162.434402 
	C450.002319,165.187668 450.002319,167.940918 450.002319,170.712662 
	C475.691193,170.712662 500.584930,170.712662 525.609009,170.712662 
	C525.609009,167.722290 525.609009,165.028122 525.609009,161.883392 
	C503.661469,161.883392 482.097717,161.883392 459.894196,161.883392 
	C459.894196,153.063629 459.894196,144.684204 459.894196,136.305603 
	C456.321930,136.305603 453.405731,136.305603 450.002319,136.305603 
	C450.002319,144.884857 450.002319,153.166824 450.002319,162.434402 
M507.502716,612.000000 
	C527.234680,612.000000 546.966614,612.000000 566.691528,612.000000 
	C566.691528,608.647583 566.691528,606.065063 566.691528,602.858032 
	C544.706299,602.858032 523.019165,602.858032 500.871124,602.858032 
	C500.871124,594.649353 500.871124,587.065002 500.871124,579.408630 
	C497.358185,579.408630 494.329590,579.408630 491.322693,579.408630 
	C491.322693,590.389587 491.322693,600.961548 491.322693,612.000000 
	C496.591431,612.000000 501.548096,612.000000 507.502716,612.000000 
M501.003632,504.499268 
	C501.003632,506.576019 501.003632,508.652771 501.003632,511.186951 
	C490.569122,511.186951 480.978394,511.186951 471.441986,511.186951 
	C471.441986,514.707336 471.441986,517.738159 471.441986,520.609558 
	C495.121887,520.609558 518.359924,520.609558 541.541748,520.609558 
	C542.770325,511.044678 542.719238,510.985260 533.624207,510.984680 
	C526.529358,510.984253 519.434570,510.984619 511.996613,510.984619 
	C511.996613,507.613770 512.001709,504.970734 511.995605,502.327667 
	C511.980988,495.995728 511.807831,496.106903 505.637726,495.929840 
	C499.129852,495.743073 501.463531,500.374939 501.003632,504.499268 
M750.340515,79.999901 
	C752.104797,79.999901 753.869141,79.999901 755.724548,79.999901 
	C755.724548,76.704720 755.724548,74.122131 755.724548,70.905563 
	C745.764404,70.905563 736.059570,70.905563 725.901855,70.905563 
	C725.901855,65.688591 725.901855,61.097115 725.901855,56.388916 
	C722.388550,56.388916 719.360779,56.388916 715.859680,56.388916 
	C715.859680,61.354164 715.859680,65.941605 715.859680,71.136497 
	C705.352051,71.136497 695.313049,71.136497 685.312866,71.136497 
	C685.312866,74.359421 685.312866,76.945709 685.312866,80.000031 
	C706.872070,80.000031 728.124146,80.000031 750.340515,79.999901 
z"/>
<path fill="#9B4B66" opacity="1.000000" stroke="none" 
	d="
M520.000000,265.001038 
	C536.123596,265.001038 551.747253,265.001038 567.682678,265.001038 
	C567.682678,271.063477 567.682678,276.645386 567.682678,282.894043 
	C541.626648,282.894043 515.589355,282.894043 489.280426,282.894043 
	C489.280426,295.801819 489.280426,308.049408 489.280426,321.002228 
	C491.336182,321.002228 493.267975,321.002197 495.199738,321.002228 
	C518.527588,321.002319 541.856567,321.122650 565.182251,320.901550 
	C569.861755,320.857208 571.480591,322.290344 571.067688,326.889130 
	C570.728882,330.662445 570.998718,334.490448 570.998718,338.778320 
	C557.019714,338.778320 543.432312,338.778320 529.424194,338.778320 
	C529.424194,349.290497 529.424194,359.324249 529.424194,369.836029 
	C550.057922,369.836029 570.644287,369.836029 591.949219,369.836029 
	C591.949219,375.369202 592.070862,380.464081 591.829041,385.541626 
	C591.788940,386.383972 590.281433,387.446075 589.234924,387.867798 
	C588.226562,388.274139 586.937012,387.995972 585.770996,387.996033 
	C540.781616,387.998322 495.792267,387.997986 450.802887,387.998016 
	C449.148865,387.998016 447.494873,387.998016 445.420685,387.998016 
	C445.420685,382.031494 445.420685,376.330994 445.420685,370.134766 
	C465.737000,370.134766 485.988098,370.134766 506.617004,370.134766 
	C506.617004,359.620514 506.617004,349.587738 506.617004,339.063049 
	C493.858551,339.063049 481.270081,339.063049 468.345764,339.063049 
	C468.345764,314.332367 468.345764,290.086304 468.345764,265.001038 
	C485.346222,265.001038 502.423096,265.001038 520.000000,265.001038 
z"/>
<path fill="#9B4B66" opacity="1.000000" stroke="none" 
	d="
M781.985840,254.999954 
	C786.445679,254.999954 790.408081,254.999954 794.678162,254.999954 
	C794.678162,273.720612 794.678162,291.964813 794.678162,310.874390 
	C781.312134,310.874390 767.935364,310.874390 754.286865,310.874390 
	C754.286865,315.448944 754.286865,319.365662 754.286865,323.766296 
	C774.965088,323.766296 795.547729,323.766296 816.562866,323.766296 
	C816.562866,329.933075 816.562866,335.633911 816.562866,341.671295 
	C767.968994,341.671295 719.400452,341.671295 670.416138,341.671295 
	C670.416138,336.020721 670.416138,330.320770 670.416138,324.127197 
	C690.744202,324.127197 710.991577,324.127197 731.607178,324.127197 
	C731.607178,319.736267 731.607178,315.819702 731.607178,311.229431 
	C718.747498,311.229431 705.709595,311.229431 692.341797,311.229431 
	C692.341797,292.321106 692.341797,274.076355 692.341797,254.999954 
	C722.018066,254.999954 751.753235,254.999954 781.985840,254.999954 
M772.947693,291.172211 
	C772.947693,285.244904 772.947693,279.317596 772.947693,273.441406 
	C752.603027,273.441406 732.917725,273.441406 713.362976,273.441406 
	C713.362976,280.130707 713.362976,286.377594 713.362976,292.874451 
	C733.005310,292.874451 752.285400,292.879150 771.565430,292.842224 
	C771.969238,292.841461 772.372131,292.360107 772.947693,291.172211 
z"/>
<path fill="#9B4B66" opacity="1.000000" stroke="none" 
	d="
M280.311951,334.032562 
	C300.585876,334.012543 320.386230,334.012543 340.590881,334.012543 
	C340.590881,331.338470 340.590881,328.974487 340.590881,326.908020 
	C332.904266,325.587616 325.259094,324.629761 317.793457,322.897827 
	C309.323212,320.932831 301.792572,316.902832 299.190979,307.890594 
	C296.402466,298.230652 301.905975,290.256836 310.060608,287.371826 
	C319.355927,284.083313 329.362061,282.346344 339.206512,281.206177 
	C347.751617,280.216522 356.523895,280.616302 365.156067,281.104065 
	C374.642914,281.640076 384.085938,282.910339 392.773651,287.339539 
	C401.325653,291.699585 404.899567,297.140747 403.901917,306.242065 
	C403.024170,314.249969 397.211914,318.737244 390.210480,320.879089 
	C381.336914,323.593597 372.131165,325.222168 362.412750,327.470795 
	C362.412750,328.632324 362.412750,331.001221 362.412750,333.844360 
	C383.027191,333.844360 403.609558,333.844360 424.593872,333.844360 
	C424.593872,339.662354 424.593872,345.028168 424.593872,350.699463 
	C375.928314,350.699463 327.372803,350.699463 278.118195,350.699463 
	C278.118195,345.644623 278.071381,340.560455 278.193237,335.480347 
	C278.204987,334.991577 279.265045,334.527924 280.311951,334.032562 
M364.236298,310.999390 
	C368.106659,310.335602 371.997040,309.769043 375.840851,308.976624 
	C378.781250,308.370392 382.511292,307.407440 381.687408,303.772675 
	C381.183228,301.548248 378.164368,298.813904 375.832245,298.294067 
	C369.773773,296.943604 363.478455,296.217621 357.263336,296.115692 
	C349.003387,295.980286 340.681030,296.242371 332.480652,297.172668 
	C327.649292,297.720703 321.769287,297.927643 319.700592,305.912231 
	C323.734924,307.311981 327.540710,309.523163 331.495209,309.832306 
	C342.058075,310.658112 352.684845,310.666870 364.236298,310.999390 
z"/>
<path fill="#9B4B66" opacity="1.000000" stroke="none" 
	d="
M244.063049,405.082214 
	C242.844330,405.387146 241.625992,405.956482 240.406799,405.958313 
	C208.758163,406.005737 177.109451,405.996246 145.460739,405.983032 
	C144.493668,405.982605 143.526657,405.837830 142.300507,405.739594 
	C142.300507,386.237915 142.300507,366.996277 142.300507,347.039124 
	C175.932785,347.039124 209.504105,347.039124 243.539810,347.560791 
	C244.023819,367.082367 244.043442,386.082306 244.063049,405.082214 
M220.263992,387.997833 
	C221.495163,387.308685 223.766464,386.660706 223.795624,385.923981 
	C224.068634,379.027039 223.957520,372.114899 223.957520,365.343262 
	C203.221985,365.343262 183.321487,365.343262 163.445221,365.343262 
	C163.445221,373.060822 163.445221,380.424622 163.445221,388.000061 
	C182.363190,388.000061 200.835709,388.000061 220.263992,387.997833 
z"/>
<path fill="#9B4B66" opacity="1.000000" stroke="none" 
	d="
M964.000061,393.994049 
	C964.000061,399.118347 964.000061,403.743866 964.000061,408.679352 
	C956.951904,408.679352 950.372986,408.679352 943.394653,408.679352 
	C943.394653,356.345490 943.394653,304.017181 943.394653,251.344360 
	C950.000732,251.344360 956.580139,251.344360 963.811829,251.344360 
	C963.811829,270.962311 963.811829,290.656372 963.811829,310.838501 
	C972.358276,310.838501 980.273010,310.838501 988.923035,310.838501 
	C988.923035,316.724731 989.113953,322.155457 988.733398,327.545807 
	C988.670654,328.434723 986.126221,329.779266 984.688721,329.832458 
	C978.057800,330.077820 971.412720,329.940674 964.000061,329.940674 
	C964.000061,351.359894 964.000061,372.427582 964.000061,393.994049 
z"/>
<path fill="#9B4B66" opacity="1.000000" stroke="none" 
	d="
M847.714722,347.777466 
	C859.803589,335.894897 869.071228,322.671967 872.349731,306.093201 
	C873.492371,300.315094 873.766724,294.317322 873.934387,288.405609 
	C874.187866,279.466248 874.000488,270.514404 874.000488,261.287659 
	C881.109375,261.287659 887.688171,261.287659 894.999573,261.287659 
	C894.999573,263.796600 894.954895,266.224274 895.006958,268.649902 
	C895.300415,282.332581 893.711731,296.143555 897.963989,309.551514 
	C902.326477,323.307281 909.212524,335.398682 920.859741,344.312408 
	C925.270020,347.687622 929.899658,350.776306 934.870911,354.309479 
	C931.869080,360.153320 925.938416,364.083527 921.196655,369.015961 
	C920.773987,369.455688 918.514709,368.677673 917.510315,367.927246 
	C904.459961,358.177429 892.889893,347.032928 884.742859,331.891479 
	C878.255371,344.188599 869.886414,354.365143 860.091675,363.382538 
	C858.279236,365.051208 856.291443,366.528381 854.401978,368.114563 
	C848.002808,373.486420 848.036316,373.458954 841.983276,367.524536 
	C840.465698,366.036743 838.658264,364.848694 837.029968,363.468658 
	C835.382690,362.072418 833.792480,360.608765 832.034851,359.048187 
	C837.491943,355.146942 842.473999,351.585205 847.714722,347.777466 
z"/>
<path fill="#9B4B66" opacity="1.000000" stroke="none" 
	d="
M388.871460,403.025757 
	C380.499542,404.745911 372.554413,407.374268 364.499664,407.769745 
	C349.496216,408.506317 334.292023,409.088928 319.626953,404.832611 
	C314.231079,403.266541 308.610596,400.954834 304.294067,397.487488 
	C293.401733,388.738007 294.438934,372.425507 306.938995,365.363800 
	C314.545410,361.066650 323.656891,358.908722 332.370300,357.253082 
	C340.093781,355.785553 348.244171,355.658783 356.129517,356.155701 
	C368.846985,356.957123 381.658783,357.413757 393.492340,363.648987 
	C401.398804,367.814941 405.684723,374.203033 405.666779,382.419006 
	C405.649292,390.426971 401.702362,397.247650 393.672485,400.718231 
	C392.161957,401.371124 390.721527,402.186157 388.871460,403.025757 
M339.721649,372.999664 
	C334.473511,374.170135 329.080475,374.930634 324.047424,376.709625 
	C321.987152,377.437836 319.256378,380.521423 319.440521,382.256500 
	C319.663879,384.360962 322.300598,386.995911 324.513702,387.928406 
	C328.357086,389.547699 332.648041,390.682312 336.802734,390.867798 
	C346.164703,391.285828 355.573029,391.312286 364.932434,390.866821 
	C369.586029,390.645325 374.355194,389.504486 378.706543,387.829742 
	C380.608154,387.097870 382.555603,384.048706 382.695129,381.933929 
	C382.809998,380.193695 380.488037,378.066772 378.856842,376.522400 
	C377.883820,375.601135 376.182404,375.135956 374.769989,375.041656 
	C363.410614,374.283508 352.042023,373.662445 339.721649,372.999664 
z"/>
<path fill="#9B4B66" opacity="1.000000" stroke="none" 
	d="
M161.960007,275.998901 
	C149.183899,275.998749 136.900085,275.998749 124.312012,275.998749 
	C124.312012,269.927032 124.312012,264.347290 124.312012,258.381378 
	C149.385025,258.381378 174.415878,258.381378 199.448181,258.381378 
	C199.523087,287.107086 170.071030,327.209351 127.912079,344.700256 
	C123.361923,339.686768 118.702301,334.552612 113.446404,328.761475 
	C140.229614,318.849792 161.607849,303.188660 174.365570,275.999023 
	C169.618835,275.999023 166.035568,275.999023 161.960007,275.998901 
z"/>
<path fill="#9B4B66" opacity="1.000000" stroke="none" 
	d="
M774.000854,387.002136 
	C774.000854,381.208191 774.000854,375.913696 774.000854,370.144836 
	C745.604126,370.144836 717.688416,370.144836 689.388062,370.144836 
	C689.388062,363.954193 689.388062,358.231354 689.388062,352.275970 
	C724.331665,352.275970 759.380066,352.275970 794.714111,352.275970 
	C794.714111,371.128326 794.714111,389.708221 794.714111,408.644165 
	C788.018616,408.644165 781.435242,408.644165 774.000854,408.644165 
	C774.000854,401.670410 774.000854,394.585999 774.000854,387.002136 
z"/>
<path fill="#9B4B66" opacity="1.000000" stroke="none" 
	d="
M259.186279,559.903320 
	C254.369034,558.637329 249.790909,557.889709 245.635651,556.138611 
	C231.094498,550.010620 227.853195,538.350464 229.068268,523.099915 
	C229.872604,513.004517 240.016617,501.936676 251.362030,499.420105 
	C263.570312,496.712189 274.777252,499.083466 283.827820,508.481415 
	C284.433197,509.109985 285.295776,509.902618 286.048798,509.913391 
	C293.498016,510.020203 300.949371,509.977997 308.873596,509.977997 
	C308.873596,505.262756 308.873596,501.005005 308.873596,496.379730 
	C312.380371,496.379730 315.410156,496.379730 318.723480,496.379730 
	C318.723480,519.449158 318.723480,542.348206 318.723480,565.623413 
	C315.609924,565.623413 312.581482,565.623413 309.059570,565.623413 
	C309.059570,560.202087 309.059570,554.943359 309.059570,549.043640 
	C300.997681,549.043640 293.401947,549.004333 285.807861,549.097473 
	C284.937561,549.108154 283.892029,549.668091 283.239502,550.296936 
	C276.635834,556.660339 268.535522,559.291138 259.186279,559.903320 
M273.420258,511.950806 
	C262.505859,505.658783 253.728561,506.058319 245.403442,512.852600 
	C239.303329,517.830994 238.706223,524.428040 238.964676,531.538574 
	C239.257294,539.589172 242.996933,545.489990 250.245438,548.533264 
	C258.180145,551.864685 266.171265,551.425842 273.356720,546.103699 
	C283.895447,538.297791 283.126312,519.625610 273.420258,511.950806 
M295.736145,540.000000 
	C299.995636,540.000000 304.255096,540.000000 308.620300,540.000000 
	C308.620300,532.704163 308.620300,526.025879 308.620300,519.435913 
	C302.224518,519.435913 296.219055,519.435913 290.352448,519.435913 
	C290.352448,526.474792 290.352448,533.083740 290.352448,539.999939 
	C291.529236,539.999939 293.174194,539.999939 295.736145,540.000000 
z"/>
<path fill="#9B4B66" opacity="1.000000" stroke="none" 
	d="
M834.178711,523.973694 
	C840.229919,524.682617 846.170776,524.962524 852.790588,525.274414 
	C852.790588,515.404907 852.790588,506.025146 852.790588,496.330383 
	C856.358948,496.330383 859.277466,496.330383 862.603027,496.330383 
	C862.603027,518.322021 862.603027,540.356689 862.603027,562.696289 
	C859.587280,562.696289 856.667297,562.696289 853.087280,562.696289 
	C853.087280,553.298157 853.087280,543.913391 853.087280,534.273438 
	C846.503662,534.273438 840.572266,534.273438 834.315308,534.273438 
	C832.716553,542.638428 828.776917,549.607361 821.298523,554.167908 
	C804.635193,564.329773 777.981812,558.006287 773.581299,536.058228 
	C770.208374,519.234924 778.241455,503.167664 797.268372,499.944092 
	C811.002930,497.617126 822.402649,501.174896 830.287842,513.025085 
	C832.291870,516.036682 832.847351,520.012085 834.178711,523.973694 
M786.939697,542.405151 
	C788.814880,543.991150 790.525696,545.843323 792.592346,547.119141 
	C804.285828,554.338013 826.203918,548.159424 824.146545,527.665039 
	C823.259460,518.828430 820.272034,512.791565 812.217590,509.740845 
	C804.002258,506.629242 796.010071,507.102081 789.272095,513.298218 
	C781.714661,520.247864 780.861938,530.389771 786.939697,542.405151 
z"/>
<path fill="#9B4B66" opacity="1.000000" stroke="none" 
	d="
M291.001129,265.152222 
	C291.111084,263.238739 291.220764,261.802216 291.364105,259.925079 
	C307.958130,259.925079 324.203217,259.925079 340.919922,259.925079 
	C340.919922,255.876068 340.919922,252.288223 340.919922,248.353302 
	C347.974213,248.353302 354.559845,248.353302 361.788025,248.353302 
	C361.788025,251.904953 361.788025,255.616531 361.788025,260.000549 
	C366.339996,260.000549 370.277191,260.000427 374.214386,260.000580 
	C385.204315,260.000977 396.196167,260.118378 407.183105,259.937195 
	C410.916321,259.875610 412.270996,261.204712 412.048492,264.879852 
	C411.819000,268.670074 411.997467,272.484985 411.997467,276.639954 
	C371.594391,276.639954 331.586029,276.639954 291.000885,276.639954 
	C291.000885,272.861908 291.000885,269.245575 291.001129,265.152222 
z"/>
<path fill="#9B4B66" opacity="1.000000" stroke="none" 
	d="
M700.001709,154.999115 
	C695.836182,154.999405 692.170227,155.001282 688.504211,154.999573 
	C680.772339,154.995987 680.482666,154.657379 681.404419,146.199234 
	C692.608826,146.199234 703.879578,146.199234 715.974060,146.199234 
	C715.974060,141.186203 716.259521,136.571060 715.775208,132.038162 
	C715.652710,130.891953 713.188599,129.406860 711.604126,129.103607 
	C702.739014,127.406906 695.318542,123.829178 691.932983,114.803108 
	C688.141907,104.695877 692.485046,94.460701 701.919189,90.068916 
	C714.921265,84.016151 727.990906,83.873917 740.671204,90.970802 
	C747.351013,94.709335 751.285278,100.875755 750.594727,108.442924 
	C749.784363,117.323067 745.166565,124.177597 736.056763,127.063354 
	C732.821472,128.088226 727.333069,128.552719 726.828491,130.370743 
	C725.512939,135.111008 726.385681,140.458572 726.385681,145.004776 
	C737.846863,145.004776 749.138123,145.004776 760.697388,145.004776 
	C761.019409,146.995163 761.432678,149.549896 762.061157,153.434769 
	C741.386841,153.960129 720.944031,154.479599 700.001709,154.999115 
M715.962585,120.981689 
	C722.044800,121.068314 728.057312,121.252434 733.726685,118.140816 
	C738.457214,115.544487 740.552246,112.052727 740.077820,106.628639 
	C739.654907,101.793053 737.178894,98.823898 732.941833,96.989052 
	C725.257629,93.661491 717.283203,93.674751 709.640991,96.381332 
	C704.995728,98.026505 701.301453,101.509293 700.957214,107.300728 
	C700.591980,113.445862 704.142883,116.691154 709.065491,118.974388 
	C710.963196,119.854599 713.069214,120.285690 715.962585,120.981689 
z"/>
<path fill="#9B4B66" opacity="1.000000" stroke="none" 
	d="
M369.000000,59.999271 
	C378.458740,59.999271 387.417480,59.999271 396.499939,59.999271 
	C396.499939,74.140862 396.499939,87.798485 396.499939,101.940781 
	C402.471161,101.940781 408.399353,101.940781 414.655151,101.940781 
	C414.655151,104.999031 414.655151,107.585670 414.655151,110.592720 
	C378.383514,110.592720 342.014130,110.592720 305.322510,110.592720 
	C305.322510,107.962723 305.322510,105.373688 305.322510,102.138733 
	C331.992554,102.138733 358.704742,102.138733 386.204987,102.138733 
	C386.204987,90.965141 386.204987,80.429695 386.204987,69.226273 
	C365.746429,69.226273 344.707458,69.226273 323.339508,69.226273 
	C323.339508,65.994629 323.339508,63.404636 323.339508,59.999271 
	C338.330414,59.999271 353.415192,59.999271 369.000000,59.999271 
z"/>
<path fill="#9B4B66" opacity="1.000000" stroke="none" 
	d="
M397.000305,165.783737 
	C397.778168,171.024918 395.531616,172.132370 391.061890,172.088898 
	C370.272217,171.886719 349.478607,171.901108 328.688507,172.080704 
	C324.442444,172.117371 322.814758,171.027710 322.905853,166.506332 
	C323.173065,153.236938 323.001038,139.958679 323.001038,126.343933 
	C347.761566,126.343933 372.094269,126.343933 397.000427,126.343933 
	C397.000427,139.461426 397.000427,152.384659 397.000305,165.783737 
M387.000946,149.490051 
	C387.000946,144.741760 387.000946,139.993484 387.000946,135.326904 
	C368.593048,135.326904 351.026306,135.326904 333.420410,135.326904 
	C333.420410,144.354248 333.420410,153.049927 333.420410,161.682037 
	C351.409851,161.682037 368.976379,161.682037 387.000946,161.682037 
	C387.000946,157.731445 387.000946,154.105484 387.000946,149.490051 
z"/>
<path fill="#9B4B66" opacity="1.000000" stroke="none" 
	d="
M491.000183,80.996948 
	C491.000183,86.457458 491.000183,91.419128 491.000183,96.860336 
	C476.600708,96.860336 462.680115,96.860336 448.382446,96.860336 
	C448.382446,103.712173 448.382446,110.079788 448.382446,116.161133 
	C460.968384,116.161133 473.364685,116.254234 485.758179,116.110008 
	C490.025024,116.060356 494.284729,115.201065 498.548370,115.194977 
	C499.665192,115.193375 501.340454,116.807251 501.765381,118.025810 
	C502.324951,119.630516 501.902893,121.577553 501.902893,124.761856 
	C480.663330,125.336624 459.702850,125.903839 438.357941,126.481461 
	C438.357941,113.354523 438.357941,101.104568 438.357941,88.184349 
	C452.289551,88.184349 466.333954,88.184349 480.683960,88.184349 
	C480.683960,82.273674 480.683960,77.024353 480.683960,71.108566 
	C466.628021,71.108566 452.579102,71.108566 438.274109,71.108566 
	C438.274109,67.864044 438.274109,65.277985 438.274109,62.344955 
	C455.642426,62.344955 472.897461,62.344955 491.000183,62.344955 
	C491.000183,68.326820 491.000183,74.412460 491.000183,80.996948 
z"/>
<path fill="#9A4B66" opacity="1.000000" stroke="none" 
	d="
M593.031860,142.688858 
	C593.692200,143.758759 594.320618,144.858246 594.974365,144.873535 
	C600.763794,145.009018 606.557678,144.952225 612.829468,144.952225 
	C612.829468,131.636108 612.829468,118.721466 612.829468,105.483238 
	C614.522888,105.289566 615.781921,105.175613 617.031799,104.997246 
	C621.470337,104.363800 623.254822,105.897301 623.106995,110.725281 
	C622.765991,121.861328 622.998840,133.014938 622.998840,144.812088 
	C636.962646,144.812088 650.669678,144.812088 664.662476,144.812088 
	C664.812500,146.372971 664.964722,147.317307 664.984375,148.264374 
	C665.123230,154.972549 665.114624,154.984894 658.539185,154.985794 
	C625.897400,154.990295 593.255554,154.987839 560.613770,154.987823 
	C558.978027,154.987823 557.342224,154.987823 555.354736,154.987823 
	C555.354736,151.669495 555.354736,148.749588 555.354736,145.174164 
	C564.270935,145.174164 573.323730,145.174164 582.841614,145.174164 
	C582.841614,131.622284 582.841614,118.707336 582.841614,105.389839 
	C584.706421,105.236069 586.134338,105.168091 587.548889,104.992226 
	C591.551575,104.494583 593.196350,105.918434 593.087463,110.242508 
	C592.819397,120.894119 593.007141,131.557205 593.031860,142.688858 
z"/>
<path fill="#9B4A66" opacity="1.000000" stroke="none" 
	d="
M244.064835,340.081757 
	C237.849319,340.361969 231.634109,340.760376 225.417953,340.775421 
	C224.624878,340.777344 223.136749,338.781982 223.132004,337.706757 
	C223.005371,309.072266 223.031296,280.437042 223.031296,251.040024 
	C229.900742,251.040024 236.488480,251.040024 243.540573,251.561508 
	C244.024902,281.415924 244.044876,310.748840 244.064835,340.081757 
z"/>
<path fill="#9B4B66" opacity="1.000000" stroke="none" 
	d="
M244.254410,592.483398 
	C243.889008,581.965881 249.362061,573.759155 260.640320,570.366089 
	C277.386719,565.327820 294.266785,564.479065 310.547668,572.843872 
	C317.508240,576.420166 321.817322,581.428101 322.090698,589.738831 
	C322.382233,598.601257 317.428253,603.797791 310.563751,607.682739 
	C303.877869,611.466492 296.469879,613.244934 288.802460,612.925720 
	C280.431519,612.577087 271.920471,612.450806 263.769806,610.773193 
	C254.170731,608.797485 246.676453,603.357849 244.254410,592.483398 
M310.993896,589.578491 
	C310.423950,583.348145 304.781738,577.873047 297.209747,577.111816 
	C289.838654,576.370728 282.313080,575.532043 275.012024,576.275330 
	C269.717041,576.814453 264.180756,579.084900 259.641174,581.978271 
	C252.885498,586.284119 253.227600,595.066589 260.249664,598.951538 
	C275.023438,607.125061 290.343689,606.812561 305.411499,599.665405 
	C308.772614,598.071106 311.397247,594.856934 310.993896,589.578491 
z"/>
<path fill="#9B4B66" opacity="1.000000" stroke="none" 
	d="
M703.002686,517.023743 
	C701.123352,532.495728 695.109314,545.742004 685.872009,557.646973 
	C676.326904,569.948547 664.260559,579.195374 650.609436,587.153870 
	C648.318542,584.552429 646.024353,581.947205 643.449463,579.023254 
	C669.297058,566.077271 688.038269,546.966003 693.166504,516.218994 
	C678.090454,516.218994 663.392029,516.218994 648.351929,516.218994 
	C648.351929,513.018738 648.351929,510.429169 648.351929,507.417694 
	C666.610962,507.417694 684.987854,507.417694 704.186157,507.417694 
	C703.781006,510.562195 703.393494,513.570312 703.002686,517.023743 
z"/>
<path fill="#9B4B66" opacity="1.000000" stroke="none" 
	d="
M360.619812,527.173706 
	C355.586395,511.902496 368.088715,500.978699 380.290588,498.913574 
	C391.609253,496.997894 402.161652,497.559387 411.224121,505.692505 
	C421.023926,514.487366 420.853180,528.120483 410.686096,536.791321 
	C399.424042,546.395996 375.097717,546.206909 365.119720,534.520813 
	C363.364197,532.464661 362.257446,529.854675 360.619812,527.173706 
M372.431274,513.058655 
	C367.773315,519.890991 368.513184,524.527039 374.457001,530.040649 
	C381.672729,536.734009 394.942047,536.193848 401.607819,531.641602 
	C410.716461,525.421021 410.045105,515.981018 402.863647,510.554779 
	C395.581604,505.052551 379.285187,505.245026 372.431274,513.058655 
z"/>
<path fill="#9B4B66" opacity="1.000000" stroke="none" 
	d="
M638.431824,76.552727 
	C617.280823,76.148323 596.468262,76.073479 575.655762,76.000687 
	C573.682617,75.993790 571.709473,75.999763 569.370422,75.999763 
	C569.370422,72.932129 569.370422,70.236458 569.370422,67.266960 
	C595.803467,67.266960 622.042175,67.266960 649.437195,67.266960 
	C648.883057,88.682663 648.333191,109.934891 647.787048,131.041962 
	C643.619507,131.041962 640.695923,131.041962 637.692505,131.041962 
	C638.055847,112.783432 638.413086,94.833145 638.431824,76.552727 
z"/>
<path fill="#9B4B66" opacity="1.000000" stroke="none" 
	d="
M532.760254,537.473511 
	C542.167236,553.660461 529.690796,568.942993 512.535461,570.866394 
	C504.366547,571.782166 496.009155,571.558411 488.562439,567.021423 
	C481.140991,562.499817 476.459717,556.083923 477.119019,547.160339 
	C477.842163,537.372620 483.969055,530.999695 492.883118,528.244019 
	C507.569427,523.703857 521.523438,524.513855 532.760254,537.473511 
M523.625854,555.891357 
	C528.261780,547.658081 526.212402,540.501770 517.654053,536.986816 
	C509.577545,533.669739 501.313110,533.626465 493.430328,537.916260 
	C485.428680,542.270752 484.768311,553.265442 492.068359,558.525269 
	C499.440002,563.836792 516.673462,564.069702 523.625854,555.891357 
z"/>
<path fill="#9B4B67" opacity="1.000000" stroke="none" 
	d="
M431.686401,567.970581 
	C432.766632,566.309143 433.892395,564.671143 433.902222,563.026367 
	C434.023224,542.711365 433.981415,522.395447 433.981598,502.079742 
	C433.981598,500.278748 433.981598,498.477783 433.981598,496.341370 
	C437.635071,496.341370 440.892242,496.341370 444.575928,496.341370 
	C444.575928,527.262939 444.575928,558.284241 444.575928,590.481262 
	C441.061035,589.830627 436.224091,590.312622 434.722687,588.302795 
	C432.913483,585.880981 433.936981,581.342896 433.698059,577.074341 
	C425.595947,577.074341 417.545288,577.074341 409.259460,577.074341 
	C409.259460,573.837891 409.259460,571.253479 409.259460,567.990845 
	C416.672821,567.990845 423.943115,567.990845 431.686401,567.970581 
z"/>
<path fill="#9B4B66" opacity="1.000000" stroke="none" 
	d="
M736.999512,605.918457 
	C736.999512,608.707214 736.999512,611.008667 736.999512,613.652588 
	C733.674561,613.652588 730.752686,613.652588 727.413391,613.652588 
	C727.413391,574.730835 727.413391,535.709045 727.413391,496.343597 
	C730.332520,496.343597 733.254150,496.343597 736.999512,496.343597 
	C736.999512,532.646729 736.999512,569.038940 736.999512,605.918457 
z"/>
<path fill="#9B4B66" opacity="1.000000" stroke="none" 
	d="
M779.000183,122.000000 
	C779.000183,139.450562 779.000183,156.401123 779.000183,173.673538 
	C775.638123,173.673538 772.719971,173.673538 769.396606,173.673538 
	C769.396606,134.691269 769.396606,95.673439 769.396606,56.327850 
	C772.365173,56.327850 775.283142,56.327850 779.000183,56.327850 
	C779.000183,78.022606 779.000183,99.761299 779.000183,122.000000 
z"/>
<path fill="#9B4B66" opacity="1.000000" stroke="none" 
	d="
M853.000244,582.173157 
	C852.890930,580.254333 852.781860,578.816711 852.640381,576.951416 
	C830.394775,576.951416 808.491516,576.951416 786.298462,576.951416 
	C786.298462,573.915527 786.298462,571.329468 786.298462,568.369995 
	C811.687256,568.369995 837.039795,568.369995 862.696411,568.369995 
	C862.696411,583.415161 862.696411,598.318359 862.696411,613.611389 
	C859.633118,613.611389 856.604309,613.611389 853.000488,613.611389 
	C853.000488,603.201721 853.000488,592.928040 853.000244,582.173157 
z"/>
<path fill="#9B4B66" opacity="1.000000" stroke="none" 
	d="
M552.999939,568.994263 
	C552.999939,544.568359 552.999939,520.641663 552.999939,496.359192 
	C556.297424,496.359192 559.213989,496.359192 562.768433,496.359192 
	C562.768433,510.908569 562.768433,525.602295 562.768433,540.936890 
	C569.092590,540.936890 574.804993,540.936890 580.745056,540.936890 
	C580.745056,544.169678 580.745056,546.752441 580.745056,549.807861 
	C575.007996,549.807861 569.420593,549.807861 563.192505,549.807861 
	C563.192505,561.287781 563.192505,572.318604 563.192505,583.669800 
	C559.643738,583.669800 556.724854,583.669800 552.999939,583.669800 
	C552.999939,579.000061 552.999939,574.246704 552.999939,568.994263 
z"/>
<path fill="#9B4B66" opacity="1.000000" stroke="none" 
	d="
M513.001099,109.000000 
	C513.001099,91.221924 513.001099,73.943840 513.001099,56.335388 
	C516.349426,56.335388 519.269592,56.335388 522.836548,56.335388 
	C522.836548,68.293274 522.836548,80.333359 522.836548,93.000031 
	C526.729553,93.000031 530.004700,92.999329 533.279785,93.000168 
	C541.596985,93.002304 541.625854,93.035370 540.578003,101.805656 
	C535.048706,101.805656 529.451599,101.805656 523.199829,101.805656 
	C523.199829,115.601479 523.199829,128.968704 523.199829,142.661453 
	C519.639526,142.661453 516.724365,142.661453 513.001099,142.661453 
	C513.001099,131.657059 513.001099,120.578529 513.001099,109.000000 
z"/>
<path fill="#9B4B66" opacity="1.000000" stroke="none" 
	d="
M392.000000,610.999634 
	C383.545746,610.999634 375.591492,610.999634 367.321777,610.999634 
	C367.321777,598.956238 367.321777,587.381897 367.321777,575.403198 
	C370.337524,575.403198 373.366852,575.403198 376.883789,575.403198 
	C376.883789,584.079285 376.883789,592.666870 376.883789,601.999207 
	C379.109131,601.999207 380.865387,601.999146 382.621643,601.999146 
	C401.934509,601.999207 421.247406,601.998352 440.560272,601.999878 
	C448.408783,602.000488 448.408783,602.002930 447.657715,610.999634 
	C429.322113,610.999634 410.911072,610.999634 392.000000,610.999634 
z"/>
<path fill="#9B4B66" opacity="1.000000" stroke="none" 
	d="
M410.831909,551.000488 
	C416.345215,550.589111 421.377899,550.177856 426.734009,549.740234 
	C426.734009,553.143005 426.734009,555.728882 426.734009,558.750305 
	C415.954926,559.294250 405.278961,559.833069 394.134705,560.395447 
	C394.134705,568.735291 394.134705,576.986267 394.134705,585.695374 
	C392.094788,585.813904 390.496826,585.838501 388.915253,586.012512 
	C385.315674,586.408386 383.779327,585.054688 383.917236,581.242859 
	C384.151306,574.772400 383.981628,568.287231 383.981628,561.291626 
	C376.630005,561.291626 369.563293,561.249023 362.497833,561.323669 
	C360.872406,561.340820 359.254547,561.935242 357.627594,561.966003 
	C348.839508,562.132202 348.499237,561.723938 349.307159,552.408813 
	C369.627380,551.940063 389.989380,551.470337 410.831909,551.000488 
z"/>
<path fill="#9B4B66" opacity="1.000000" stroke="none" 
	d="
M450.002319,161.941589 
	C450.002319,153.166824 450.002319,144.884857 450.002319,136.305603 
	C453.405731,136.305603 456.321930,136.305603 459.894196,136.305603 
	C459.894196,144.684204 459.894196,153.063629 459.894196,161.883392 
	C482.097717,161.883392 503.661469,161.883392 525.609009,161.883392 
	C525.609009,165.028122 525.609009,167.722290 525.609009,170.712662 
	C500.584930,170.712662 475.691193,170.712662 450.002319,170.712662 
	C450.002319,167.940918 450.002319,165.187668 450.002319,161.941589 
z"/>
<path fill="#9B4B66" opacity="1.000000" stroke="none" 
	d="
M507.003723,612.000000 
	C501.548096,612.000000 496.591431,612.000000 491.322693,612.000000 
	C491.322693,600.961548 491.322693,590.389587 491.322693,579.408630 
	C494.329590,579.408630 497.358185,579.408630 500.871124,579.408630 
	C500.871124,587.065002 500.871124,594.649353 500.871124,602.858032 
	C523.019165,602.858032 544.706299,602.858032 566.691528,602.858032 
	C566.691528,606.065063 566.691528,608.647583 566.691528,612.000000 
	C546.966614,612.000000 527.234680,612.000000 507.003723,612.000000 
z"/>
<path fill="#9C4C65" opacity="1.000000" stroke="none" 
	d="
M501.003662,504.028320 
	C501.463531,500.374939 499.129852,495.743073 505.637726,495.929840 
	C511.807831,496.106903 511.980988,495.995728 511.995605,502.327667 
	C512.001709,504.970734 511.996613,507.613770 511.996613,510.984619 
	C519.434570,510.984619 526.529358,510.984253 533.624207,510.984680 
	C542.719238,510.985260 542.770325,511.044678 541.541748,520.609558 
	C518.359924,520.609558 495.121887,520.609558 471.441986,520.609558 
	C471.441986,517.738159 471.441986,514.707336 471.441986,511.186951 
	C480.978394,511.186951 490.569122,511.186951 501.003632,511.186951 
	C501.003632,508.652771 501.003632,506.576019 501.003662,504.028320 
z"/>
<path fill="#9B4B66" opacity="1.000000" stroke="none" 
	d="
M749.858398,79.999969 
	C728.124146,80.000031 706.872070,80.000031 685.312866,80.000031 
	C685.312866,76.945709 685.312866,74.359421 685.312866,71.136497 
	C695.313049,71.136497 705.352051,71.136497 715.859680,71.136497 
	C715.859680,65.941605 715.859680,61.354164 715.859680,56.388916 
	C719.360779,56.388916 722.388550,56.388916 725.901855,56.388916 
	C725.901855,61.097115 725.901855,65.688591 725.901855,70.905563 
	C736.059570,70.905563 745.764404,70.905563 755.724548,70.905563 
	C755.724548,74.122131 755.724548,76.704720 755.724548,79.999901 
	C753.869141,79.999901 752.104797,79.999901 749.858398,79.999969 
z"/>
<path fill="#AA5555" opacity="1.000000" stroke="none" 
	d="
M244.405731,339.815643 
	C244.044876,310.748840 244.024902,281.415924 244.005783,251.624939 
	C244.332764,251.844116 244.944641,252.521667 244.943893,253.198532 
	C244.912308,281.982239 244.826096,310.765869 244.405731,339.815643 
z"/>
<path fill="#AA5555" opacity="1.000000" stroke="none" 
	d="
M244.404358,404.816345 
	C244.043442,386.082306 244.023819,367.082367 244.005035,347.624390 
	C244.332214,347.842682 244.944244,348.519501 244.943237,349.195404 
	C244.915619,367.647186 244.825409,386.098816 244.404358,404.816345 
z"/>
<path fill="#000000" opacity="1.000000" stroke="none" 
	d="
M772.861572,291.637573 
	C772.372131,292.360107 771.969238,292.841461 771.565430,292.842224 
	C752.285400,292.879150 733.005310,292.874451 713.362976,292.874451 
	C713.362976,286.377594 713.362976,280.130707 713.362976,273.441406 
	C732.917725,273.441406 752.603027,273.441406 772.947693,273.441406 
	C772.947693,279.317596 772.947693,285.244904 772.861572,291.637573 
z"/>
<path fill="#000000" opacity="1.000000" stroke="none" 
	d="
M363.761230,310.999878 
	C352.684845,310.666870 342.058075,310.658112 331.495209,309.832306 
	C327.540710,309.523163 323.734924,307.311981 319.700592,305.912231 
	C321.769287,297.927643 327.649292,297.720703 332.480652,297.172668 
	C340.681030,296.242371 349.003387,295.980286 357.263336,296.115692 
	C363.478455,296.217621 369.773773,296.943604 375.832245,298.294067 
	C378.164368,298.813904 381.183228,301.548248 381.687408,303.772675 
	C382.511292,307.407440 378.781250,308.370392 375.840851,308.976624 
	C371.997040,309.769043 368.106659,310.335602 363.761230,310.999878 
z"/>
<path fill="#000000" opacity="1.000000" stroke="none" 
	d="
M219.786118,387.998962 
	C200.835709,388.000061 182.363190,388.000061 163.445221,388.000061 
	C163.445221,380.424622 163.445221,373.060822 163.445221,365.343262 
	C183.321487,365.343262 203.221985,365.343262 223.957520,365.343262 
	C223.957520,372.114899 224.068634,379.027039 223.795624,385.923981 
	C223.766464,386.660706 221.495163,387.308685 219.786118,387.998962 
z"/>
<path fill="#000000" opacity="1.000000" stroke="none" 
	d="
M340.198975,372.999573 
	C352.042023,373.662445 363.410614,374.283508 374.769989,375.041656 
	C376.182404,375.135956 377.883820,375.601135 378.856842,376.522400 
	C380.488037,378.066772 382.809998,380.193695 382.695129,381.933929 
	C382.555603,384.048706 380.608154,387.097870 378.706543,387.829742 
	C374.355194,389.504486 369.586029,390.645325 364.932434,390.866821 
	C355.573029,391.312286 346.164703,391.285828 336.802734,390.867798 
	C332.648041,390.682312 328.357086,389.547699 324.513702,387.928406 
	C322.300598,386.995911 319.663879,384.360962 319.440521,382.256500 
	C319.256378,380.521423 321.987152,377.437836 324.047424,376.709625 
	C329.080475,374.930634 334.473511,374.170135 340.198975,372.999573 
z"/>
<path fill="#000000" opacity="1.000000" stroke="none" 
	d="
M273.689636,512.201477 
	C283.126312,519.625610 283.895447,538.297791 273.356720,546.103699 
	C266.171265,551.425842 258.180145,551.864685 250.245438,548.533264 
	C242.996933,545.489990 239.257294,539.589172 238.964676,531.538574 
	C238.706223,524.428040 239.303329,517.830994 245.403442,512.852600 
	C253.728561,506.058319 262.505859,505.658783 273.689636,512.201477 
z"/>
<path fill="#000000" opacity="1.000000" stroke="none" 
	d="
M295.277649,540.000000 
	C293.174194,539.999939 291.529236,539.999939 290.352448,539.999939 
	C290.352448,533.083740 290.352448,526.474792 290.352448,519.435913 
	C296.219055,519.435913 302.224518,519.435913 308.620300,519.435913 
	C308.620300,526.025879 308.620300,532.704163 308.620300,540.000000 
	C304.255096,540.000000 299.995636,540.000000 295.277649,540.000000 
z"/>
<path fill="#000000" opacity="1.000000" stroke="none" 
	d="
M786.680481,542.135681 
	C780.861938,530.389771 781.714661,520.247864 789.272095,513.298218 
	C796.010071,507.102081 804.002258,506.629242 812.217590,509.740845 
	C820.272034,512.791565 823.259460,518.828430 824.146545,527.665039 
	C826.203918,548.159424 804.285828,554.338013 792.592346,547.119141 
	C790.525696,545.843323 788.814880,543.991150 786.680481,542.135681 
z"/>
<path fill="#000000" opacity="1.000000" stroke="none" 
	d="
M715.521484,120.951553 
	C713.069214,120.285690 710.963196,119.854599 709.065491,118.974388 
	C704.142883,116.691154 700.591980,113.445862 700.957214,107.300728 
	C701.301453,101.509293 704.995728,98.026505 709.640991,96.381332 
	C717.283203,93.674751 725.257629,93.661491 732.941833,96.989052 
	C737.178894,98.823898 739.654907,101.793053 740.077820,106.628639 
	C740.552246,112.052727 738.457214,115.544487 733.726685,118.140816 
	C728.057312,121.252434 722.044800,121.068314 715.521484,120.951553 
z"/>
<path fill="#000000" opacity="1.000000" stroke="none" 
	d="
M387.000946,149.984787 
	C387.000946,154.105484 387.000946,157.731445 387.000946,161.682037 
	C368.976379,161.682037 351.409851,161.682037 333.420410,161.682037 
	C333.420410,153.049927 333.420410,144.354248 333.420410,135.326904 
	C351.026306,135.326904 368.593048,135.326904 387.000946,135.326904 
	C387.000946,139.993484 387.000946,144.741760 387.000946,149.984787 
z"/>
<path fill="#000000" opacity="1.000000" stroke="none" 
	d="
M311.002991,589.995239 
	C311.397247,594.856934 308.772614,598.071106 305.411499,599.665405 
	C290.343689,606.812561 275.023438,607.125061 260.249664,598.951538 
	C253.227600,595.066589 252.885498,586.284119 259.641174,581.978271 
	C264.180756,579.084900 269.717041,576.814453 275.012024,576.275330 
	C282.313080,575.532043 289.838654,576.370728 297.209747,577.111816 
	C304.781738,577.873047 310.423950,583.348145 311.002991,589.995239 
z"/>
<path fill="#000000" opacity="1.000000" stroke="none" 
	d="
M372.701569,512.797852 
	C379.285187,505.245026 395.581604,505.052551 402.863647,510.554779 
	C410.045105,515.981018 410.716461,525.421021 401.607819,531.641602 
	C394.942047,536.193848 381.672729,536.734009 374.457001,530.040649 
	C368.513184,524.527039 367.773315,519.890991 372.701569,512.797852 
z"/>
<path fill="#000000" opacity="1.000000" stroke="none" 
	d="
M523.346497,556.153381 
	C516.673462,564.069702 499.440002,563.836792 492.068359,558.525269 
	C484.768311,553.265442 485.428680,542.270752 493.430328,537.916260 
	C501.313110,533.626465 509.577545,533.669739 517.654053,536.986816 
	C526.212402,540.501770 528.261780,547.658081 523.346497,556.153381 
z"/>
</svg>