<svg version="1.1" id="Layer_1" xmlns="http://www.w3.org/2000/svg" xmlns:xlink="http://www.w3.org/1999/xlink" x="0px" y="0px"
	 width="100%" viewBox="0 0 737 491" enable-background="new 0 0 737 491" xml:space="preserve">
<path fill="#000000" opacity="1.000000" stroke="none" 
	d="
M450.000000,492.000000 
	C300.000000,492.000000 150.500000,492.000000 1.000000,492.000000 
	C1.000000,328.333344 1.000000,164.666672 1.000000,1.000000 
	C246.666672,1.000000 492.333344,1.000000 738.000000,1.000000 
	C738.000000,164.666672 738.000000,328.333344 738.000000,492.000000 
	C642.166687,492.000000 546.333313,492.000000 450.000000,492.000000 
M300.863770,62.419113 
	C290.112579,57.644897 279.076355,57.679207 268.100616,61.147697 
	C261.075378,63.367767 256.855743,68.774117 256.138458,76.034439 
	C255.452591,82.976883 257.606628,89.340935 264.314911,92.683929 
	C269.039429,95.038338 274.227325,96.462944 279.603394,98.448624 
	C279.603394,102.607094 279.603394,107.645737 279.603394,113.129105 
	C268.282318,113.129105 257.350983,113.129105 246.034378,113.129105 
	C246.167679,114.975792 246.266251,116.341499 246.365677,117.718781 
	C271.043793,117.718781 295.292023,117.718781 319.923950,117.718781 
	C319.822510,116.047188 319.739716,114.683060 319.629456,112.866348 
	C308.324341,112.866348 297.405548,112.866348 286.381958,112.866348 
	C286.381958,107.336258 286.381958,102.289879 286.381958,97.282455 
	C300.053040,96.268867 307.521362,90.893661 309.582336,80.999123 
	C310.969604,74.339058 307.996521,67.212784 300.863770,62.419113 
M417.220398,230.987549 
	C418.110809,230.480972 419.767120,229.989197 419.777252,229.465622 
	C419.939392,221.065125 419.891663,212.660583 419.891663,204.325714 
	C403.260956,204.325714 387.360809,204.325714 371.421082,204.325714 
	C371.421082,213.350235 371.421082,222.044037 371.421082,231.197281 
	C378.426331,231.197281 385.014648,231.197281 391.742798,231.197281 
	C391.742798,234.254044 391.742798,236.837830 391.742798,240.031586 
	C380.781647,240.031586 370.057831,240.031586 358.936737,240.031586 
	C359.144196,242.047180 359.284882,243.414017 359.417389,244.701355 
	C383.783508,244.701355 407.686310,244.701355 431.973206,244.701355 
	C431.838379,243.007568 431.729675,241.642136 431.586548,239.843994 
	C420.611237,239.843994 410.030792,239.843994 399.418396,239.843994 
	C399.418396,236.669037 399.418396,233.974503 399.418396,230.997116 
	C405.309479,230.997116 410.787048,230.997116 417.220398,230.987549 
M290.497131,209.000000 
	C280.082611,209.000000 269.668060,209.000000 259.350616,209.000000 
	C259.350616,221.093552 259.350616,232.342834 259.350616,244.073654 
	C266.280548,244.073654 272.872986,244.073654 279.610291,244.073654 
	C279.610291,250.601807 279.610291,256.635620 279.610291,263.122681 
	C268.291840,263.122681 257.354950,263.122681 246.032440,263.122681 
	C246.167496,264.977142 246.266998,266.343384 246.366150,267.704803 
	C271.058960,267.704803 295.319214,267.704803 319.965332,267.704803 
	C319.835754,266.014343 319.730988,264.647919 319.591370,262.826355 
	C308.279266,262.826355 297.357452,262.826355 286.439758,262.826355 
	C286.439758,256.292847 286.439758,250.257034 286.439758,243.785416 
	C294.150635,243.785416 301.428925,243.785416 308.729095,243.785416 
	C308.729095,242.063721 308.729095,240.795609 308.729095,238.887131 
	C294.117920,238.887131 279.730316,238.887131 265.308411,238.887131 
	C265.308411,230.325821 265.308411,222.410431 265.308411,213.867813 
	C279.325043,213.867813 293.046265,213.867813 306.983887,213.867813 
	C306.878754,211.957458 306.809387,210.696945 306.716003,209.000000 
	C301.431702,209.000000 296.463348,209.000000 290.497131,209.000000 
M399.999756,381.649597 
	C399.999756,386.266327 399.999756,390.883087 399.999756,395.619568 
	C402.588654,395.619568 404.616089,395.619568 406.728180,395.619568 
	C406.728180,381.005981 406.728180,366.766998 406.728180,352.373291 
	C404.424011,352.373291 402.396576,352.373291 399.897705,352.373291 
	C399.897705,358.648834 399.897705,364.570953 399.897705,370.395233 
	C389.910706,372.016998 389.582214,371.849274 385.808472,363.684601 
	C385.605438,363.245331 385.205597,362.900879 384.969147,362.472687 
	C379.659180,352.857666 366.146484,352.294006 358.071198,355.186737 
	C348.945618,358.455750 344.500397,369.862579 347.584106,380.105652 
	C349.652924,386.977661 356.301636,392.613861 362.787933,392.994141 
	C375.837006,393.759186 382.761749,390.834381 385.907654,381.436340 
	C387.671021,376.168396 390.514252,375.553650 394.903107,375.978302 
	C396.357544,376.119049 397.837097,376.000549 399.652130,376.000549 
	C399.786163,377.811310 399.892731,379.250641 399.999756,381.649597 
M190.500000,251.000107 
	C205.581543,251.000107 220.663086,251.000107 235.970245,251.000107 
	C235.873474,249.015213 235.811676,247.747375 235.721527,245.898376 
	C224.731476,245.898376 214.005753,245.898376 203.283417,245.898376 
	C203.283417,243.701324 203.283417,242.103455 203.283417,239.918335 
	C205.995499,239.918335 208.485352,240.176559 210.894272,239.845612 
	C213.295929,239.515671 215.722794,238.841019 217.948959,237.878799 
	C221.818481,236.206284 224.787430,234.090332 225.182724,228.958694 
	C225.622192,223.253494 221.370422,219.513855 215.020645,218.314545 
	C207.953171,216.979675 200.539093,216.862747 193.317780,217.177307 
	C188.538879,217.385468 183.758331,219.046814 179.120316,220.507751 
	C175.660553,221.597580 174.030991,224.390152 173.970596,228.138885 
	C173.908371,232.001678 175.176376,235.117111 178.932632,236.388458 
	C184.419098,238.245407 190.040283,239.704300 195.975311,241.441528 
	C195.912689,242.433121 195.812500,244.019928 195.685822,246.025909 
	C184.754089,246.025909 174.167145,246.025909 163.340424,246.025909 
	C163.340424,247.838562 163.340424,249.201385 163.340424,251.000107 
	C172.256958,251.000107 180.878479,251.000107 190.500000,251.000107 
M575.785278,106.838974 
	C575.210876,106.573257 574.617676,106.042740 574.064941,106.081947 
	C566.843445,106.594139 559.634521,107.308655 552.407959,107.714127 
	C548.023926,107.960121 543.614929,107.759476 539.359985,107.759476 
	C539.359985,100.542381 539.359985,93.964119 539.359985,86.919365 
	C548.958008,86.919365 558.206543,86.919365 567.623901,86.919365 
	C567.623901,77.412125 567.623901,68.386276 567.623901,59.269505 
	C555.661621,59.269505 544.077271,59.269505 532.112732,59.269505 
	C532.189636,60.922913 532.253113,62.286900 532.337646,64.103172 
	C541.973083,64.103172 551.223450,64.103172 560.610046,64.103172 
	C560.610046,70.279472 560.610046,75.975143 560.610046,82.140480 
	C550.979309,82.140480 541.731628,82.140480 532.404602,82.140480 
	C532.404602,92.649155 532.404602,102.674561 532.404602,112.262558 
	C547.017029,112.262558 561.217041,112.262558 575.717224,112.262558 
	C575.818542,110.268814 575.883484,108.990967 575.785278,106.838974 
M357.504761,128.000046 
	C369.255127,128.000046 381.005463,128.000046 392.982025,128.000046 
	C392.875244,125.981102 392.808380,124.717491 392.710114,122.859528 
	C378.039581,122.859528 363.657867,122.859528 349.306702,122.859528 
	C349.306702,119.987808 349.306702,117.733116 349.306702,114.844246 
	C363.298950,114.844246 377.001282,114.844246 390.678101,114.844246 
	C390.678101,108.621109 390.678101,103.043640 390.678101,97.371796 
	C374.320160,97.371796 358.287140,97.371796 342.036194,97.371796 
	C342.123077,99.018753 342.189758,100.282570 342.287781,102.140656 
	C356.291748,102.140656 370.008484,102.140656 383.693298,102.140656 
	C383.693298,105.019722 383.693298,107.274490 383.693298,110.156059 
	C369.701050,110.156059 355.998810,110.156059 342.322571,110.156059 
	C342.322571,116.380196 342.322571,121.957230 342.322571,128.000046 
	C347.258820,128.000046 351.882965,128.000046 357.504761,128.000046 
M631.533447,261.000000 
	C628.117615,261.000000 624.701782,261.000000 621.330933,261.000000 
	C621.330933,267.062653 621.330933,272.307220 621.330933,277.979614 
	C637.934204,277.979614 654.211182,278.047546 670.484009,277.818359 
	C671.508789,277.803894 672.500854,275.470612 673.508179,274.216095 
	C673.138794,273.760010 672.769409,273.303894 672.400024,272.847778 
	C657.348938,272.847778 642.297791,272.847778 627.314575,272.847778 
	C627.314575,270.306976 627.314575,268.385986 627.314575,265.830658 
	C641.977844,265.830658 656.347107,265.830658 670.669922,265.830658 
	C670.669922,259.938324 670.669922,254.693695 670.669922,249.020569 
	C654.733276,249.020569 639.122070,248.949768 623.515320,249.182159 
	C622.490295,249.197418 621.499695,251.530487 620.493103,252.785431 
	C620.862061,253.241776 621.231018,253.698105 621.600037,254.154449 
	C635.653442,254.154449 649.706848,254.154449 663.683105,254.154449 
	C663.683105,256.696960 663.683105,258.617950 663.683105,261.000000 
	C653.095581,261.000000 642.810547,261.000000 631.533447,261.000000 
M279.314484,376.916199 
	C273.404175,379.096161 267.493866,381.276093 261.455688,383.503204 
	C263.596008,386.762421 265.959473,389.296112 270.612854,387.053711 
	C278.775269,383.120361 287.039917,379.399231 295.763977,375.356476 
	C301.724060,381.437988 310.604126,384.942963 319.740295,387.756134 
	C323.783905,389.001221 326.148834,386.608063 327.108551,382.584503 
	C310.890015,379.606934 300.146729,373.049805 298.462708,364.998291 
	C305.340942,364.998291 312.163300,364.850342 318.974915,365.056885 
	C322.725739,365.170624 323.710815,363.817841 322.342377,359.816772 
	C314.339813,359.816772 306.275024,359.816772 298.252716,359.816772 
	C298.039825,356.906097 297.873627,354.633667 297.712891,352.436096 
	C295.287384,352.436096 293.248047,352.436096 291.246948,352.436096 
	C291.031799,355.126709 290.851074,357.386505 290.636078,360.074982 
	C282.352112,360.074982 274.416382,360.074982 266.097717,360.074982 
	C266.188019,361.925598 266.254639,363.291077 266.337708,364.994049 
	C274.513550,364.994049 282.293793,364.994049 290.343231,364.994049 
	C289.189545,371.333679 284.445221,373.819183 279.314484,376.916199 
M501.574646,62.063900 
	C500.155090,60.951729 498.855560,59.621777 497.296600,58.762604 
	C486.909851,53.038376 475.865875,53.931847 465.066132,56.659363 
	C457.873413,58.475914 452.757111,65.948189 453.016937,71.841667 
	C453.328064,78.898781 458.142731,85.606148 465.995239,86.650528 
	C474.536346,87.786469 483.696289,88.441757 491.956116,86.551895 
	C504.646362,83.648323 508.390594,72.306656 501.574646,62.063900 
M591.998901,260.531860 
	C591.998901,257.117157 591.998901,253.702469 591.998901,250.312241 
	C574.952393,250.312241 558.720337,250.312241 542.406494,250.312241 
	C542.406494,259.654541 542.406494,268.680267 542.406494,277.686218 
	C559.047180,277.686218 575.279236,277.686218 591.998901,277.686218 
	C591.998901,272.097626 591.998901,266.810242 591.998901,260.531860 
M477.192230,409.988922 
	C466.266388,409.988922 455.340546,409.988922 444.198700,409.988922 
	C444.035522,406.640686 443.902496,403.910858 443.777405,401.344055 
	C441.246643,401.344055 439.329193,401.344055 437.438538,401.344055 
	C437.438538,410.382294 437.438538,419.078918 437.438538,427.654572 
	C453.779449,427.654572 469.679596,427.654572 485.750244,427.654572 
	C485.750244,418.726379 485.750244,410.144745 485.750244,401.347931 
	C483.798218,401.347931 482.098389,401.347931 481.132141,401.347931 
	C480.011932,404.558289 479.070770,407.255432 477.192230,409.988922 
M112.504723,250.000000 
	C107.422630,250.000000 102.340538,250.000000 97.329590,250.000000 
	C97.329590,259.735321 97.329590,268.642639 97.329590,277.587860 
	C113.346169,277.587860 129.029648,277.587860 144.670349,277.587860 
	C144.670349,268.264801 144.670349,259.357300 144.670349,250.000000 
	C134.065430,250.000000 123.784081,250.000000 112.504723,250.000000 
M627.559631,401.999817 
	C619.531372,402.416992 611.503052,402.834167 603.273621,403.261780 
	C603.273621,389.733917 603.273621,377.151428 603.273621,363.940369 
	C613.599548,363.940369 623.665344,363.940369 633.948303,363.940369 
	C633.864136,362.031952 633.808167,360.762878 633.747925,359.395416 
	C621.076172,359.395416 608.698425,359.395416 596.327271,359.395416 
	C596.327271,375.709381 596.327271,391.625671 596.327271,407.986298 
	C609.612854,407.986298 622.576111,408.009064 635.539124,407.973480 
	C639.848267,407.961670 638.950684,405.077057 638.745300,402.000000 
	C635.133423,402.000000 631.830200,402.000000 627.559631,401.999817 
M173.104568,269.182922 
	C174.408066,273.157928 175.942413,276.688904 180.538254,278.231415 
	C193.316315,282.520081 206.101868,282.269135 218.823212,278.512390 
	C223.733078,277.062469 226.155136,272.501831 225.997879,267.277466 
	C225.833282,261.810089 221.684540,257.178925 214.061722,256.175568 
	C205.916977,255.103531 197.500824,254.475723 189.378174,255.325958 
	C181.831223,256.115936 173.854660,258.300537 173.104568,269.182922 
M647.458252,231.000229 
	C654.375183,231.405182 660.878845,230.386475 666.669312,226.129776 
	C672.827515,221.602753 672.452209,211.560028 665.642212,207.954910 
	C653.610596,201.585541 640.964478,202.792419 628.640930,206.453049 
	C623.871338,207.869812 619.864746,211.915207 620.047180,217.941757 
	C620.196960,222.889145 624.179077,227.553253 630.422302,229.011093 
	C635.646484,230.230972 641.121094,230.378082 647.458252,231.000229 
M456.914246,240.339493 
	C452.154907,245.814560 447.395569,251.289627 442.576416,256.833466 
	C447.304047,262.207855 447.667725,262.516724 452.563995,256.751801 
	C457.816315,250.567780 462.291718,243.723892 466.948883,237.382095 
	C472.010315,245.421753 476.861877,254.619507 485.470032,259.819824 
	C487.526672,258.026337 489.082245,256.669830 491.006958,254.991409 
	C473.762360,243.602051 467.672272,227.293701 470.266296,207.383514 
	C467.408203,207.383514 465.381287,207.383514 462.999756,207.383514 
	C462.999756,212.391327 463.732300,217.176743 462.821991,221.626022 
	C461.567627,227.756943 459.072266,233.633942 456.914246,240.339493 
M497.000854,228.500000 
	C497.000854,245.574829 497.000854,262.649658 497.000854,279.695679 
	C499.678528,279.695679 501.600464,279.695679 504.150146,279.695679 
	C504.150146,266.041718 504.150146,252.672623 504.150146,238.868973 
	C509.049316,238.868973 513.317505,238.868973 517.966858,238.868973 
	C517.833435,237.022064 517.734802,235.656235 517.603638,233.840408 
	C512.960754,233.840408 508.704468,233.840408 503.846466,233.840408 
	C503.846466,222.988693 503.846466,212.609100 503.846466,202.325592 
	C501.287140,202.325592 499.367828,202.325592 497.000854,202.325592 
	C497.000854,210.924301 497.000854,219.212158 497.000854,228.500000 
M646.000000,408.499817 
	C646.000000,415.591064 646.000000,422.682281 646.000000,429.678589 
	C648.707886,429.678589 650.630493,429.678589 653.177490,429.678589 
	C653.177490,415.674316 653.177490,401.972198 653.177490,387.839539 
	C657.746948,387.839539 661.682495,387.839539 666.001343,387.839539 
	C665.843933,385.990906 665.727539,384.624390 665.573181,382.812256 
	C661.258118,382.812256 657.338745,382.812256 652.808777,382.812256 
	C652.808777,372.297852 652.808777,362.256134 652.808777,352.342102 
	C650.241943,352.342102 648.323303,352.342102 646.000000,352.342102 
	C646.000000,370.948425 646.000000,389.224182 646.000000,408.499817 
M287.264069,401.002838 
	C290.532043,400.499023 291.094330,402.238251 291.046906,405.068329 
	C290.908875,413.307373 290.997925,421.550232 290.997925,429.649628 
	C293.773743,429.649628 295.688385,429.649628 298.244293,429.649628 
	C298.244293,419.945312 298.244293,410.569672 298.244293,400.780151 
	C309.496490,400.780151 320.096954,400.780151 330.727966,400.780151 
	C330.727966,399.062042 330.727966,397.796692 330.727966,396.320862 
	C306.443939,396.320862 282.397125,396.320862 257.965942,396.320862 
	C258.142883,398.046173 258.283112,399.413666 258.445862,401.000641 
	C268.019226,401.000641 277.163757,401.000641 287.264069,401.002838 
M465.621094,389.895233 
	C469.507141,384.122986 469.085480,378.625244 464.393524,373.889099 
	C457.653076,367.085266 440.141174,366.947418 432.859894,373.640869 
	C427.220428,378.825043 427.580170,387.212708 433.652466,392.120880 
	C441.613434,398.555664 457.803619,397.678284 465.621094,389.895233 
M524.568115,407.000580 
	C536.608337,406.823883 548.648621,406.647156 560.729004,406.469879 
	C560.729004,403.714661 560.729004,402.117584 560.729004,400.233795 
	C548.083008,400.904999 535.694885,401.562561 522.813293,402.246307 
	C522.813293,387.237946 522.813293,373.315735 522.813293,359.245667 
	C520.428406,359.245667 518.505615,359.245667 516.348755,359.245667 
	C516.348755,375.183197 516.348755,390.880615 516.348755,407.000580 
	C518.992737,407.000580 521.292786,407.000580 524.568115,407.000580 
M583.999634,85.500000 
	C583.999634,100.252762 583.999634,115.005524 583.999634,129.678329 
	C586.696411,129.678329 588.621094,129.678329 590.614136,129.678329 
	C590.614136,103.659676 590.614136,77.955902 590.614136,52.321259 
	C588.301208,52.321259 586.376526,52.321259 583.999634,52.321259 
	C583.999634,63.251808 583.999634,73.875908 583.999634,85.500000 
M482.500000,96.000000 
	C469.081390,96.000000 455.662750,96.000000 442.017242,96.000000 
	C442.123108,98.017166 442.189484,99.281532 442.288361,101.165596 
	C453.619690,101.165596 464.665009,101.165596 476.145447,101.165596 
	C476.145447,111.059448 476.145447,120.321503 476.145447,129.580215 
	C478.316986,129.580215 480.010284,129.580215 482.176575,129.580215 
	C482.176575,119.937889 482.176575,110.687820 482.176575,100.994934 
	C493.572296,100.994934 504.493164,100.994934 515.664734,100.994934 
	C515.664734,99.165886 515.664734,97.802483 515.664734,96.000000 
	C504.748962,96.000000 494.124481,96.000000 482.500000,96.000000 
M115.509033,211.317917 
	C113.515648,222.830750 105.908012,230.073761 96.496460,235.714050 
	C92.320000,238.216980 87.681999,239.949768 83.007591,242.147751 
	C85.478935,245.063400 87.134064,248.146820 91.633919,246.030762 
	C108.695824,238.007339 121.928566,226.983643 123.891121,206.290131 
	C111.956467,206.290131 100.215225,206.290131 88.087547,206.290131 
	C88.182556,207.943939 88.261002,209.309357 88.362518,211.076340 
	C97.403160,211.076340 106.047272,211.076340 115.509033,211.317917 
M567.002319,426.220276 
	C566.684021,431.472931 569.827271,430.059601 572.689941,429.517883 
	C572.689941,403.586060 572.689941,377.996765 572.689941,352.432312 
	C570.674927,352.432312 568.976685,352.432312 567.000488,352.432312 
	C567.000488,376.989349 567.000488,401.133545 567.002319,426.220276 
M535.052002,236.162964 
	C535.858337,236.766922 536.666138,237.898651 537.470703,237.896286 
	C551.182556,237.855957 564.893982,237.675140 578.586365,237.525497 
	C578.586365,234.651215 578.586365,232.943497 578.586365,231.220123 
	C566.257080,231.909760 554.320618,232.577423 541.875732,233.273514 
	C541.875732,223.307800 541.875732,214.383484 541.875732,205.404556 
	C539.364807,205.404556 537.340698,205.404556 535.012024,205.404556 
	C535.012024,215.604706 535.012024,225.410126 535.052002,236.162964 
M399.407501,400.000000 
	C384.793915,400.000000 370.180298,400.000000 355.346375,400.000000 
	C355.346375,401.853729 355.346375,403.216888 355.346375,405.214478 
	C370.349609,405.214478 385.053284,405.214478 400.198792,405.214478 
	C400.198792,413.776306 400.198792,421.702911 400.198792,429.747131 
	C402.586029,429.747131 404.508942,429.747131 406.642334,429.747131 
	C406.642334,419.799164 406.642334,410.099365 406.642334,400.000000 
	C404.318817,400.000000 402.349854,400.000000 399.407501,400.000000 
M671.933960,79.413406 
	C672.524353,76.225906 670.657471,75.937454 668.153381,75.968796 
	C660.827942,76.060455 653.500549,76.000092 646.173950,75.999680 
	C640.578674,75.999359 634.983337,75.999619 628.931335,75.999619 
	C628.931335,68.372704 628.931335,61.445862 628.931335,54.375965 
	C626.417114,54.375965 624.390320,54.375965 622.298462,54.375965 
	C622.298462,63.324944 622.298462,71.902832 622.298462,81.000046 
	C637.365601,81.000046 652.141113,81.021454 666.916382,80.969360 
	C668.523010,80.963699 670.128113,80.533699 671.933960,79.413406 
M420.000000,265.508240 
	C420.000000,261.429321 420.000000,257.350403 420.000000,253.294800 
	C402.587158,253.294800 386.003754,253.294800 369.037018,253.294800 
	C369.164795,254.985413 369.267883,256.349792 369.404083,258.152161 
	C384.370667,258.152161 398.944183,258.152161 414.138184,258.152161 
	C414.138184,265.660217 414.138184,272.716034 414.138184,280.035461 
	C416.377228,279.910614 417.969727,279.821808 420.000000,279.708588 
	C420.000000,275.093048 420.000000,270.796295 420.000000,265.508240 
M642.511475,123.000015 
	C638.098267,123.000015 633.684998,123.000015 628.830322,123.000015 
	C628.830322,116.256790 628.830322,110.331436 628.830322,104.235374 
	C626.442810,104.235374 624.520447,104.235374 622.341675,104.235374 
	C622.341675,112.166695 622.341675,119.867393 622.341675,127.766190 
	C638.922913,127.766190 655.162231,127.766190 671.663696,127.766190 
	C671.663696,126.167252 671.663696,124.804588 671.663696,123.000015 
	C662.084900,123.000015 652.796021,123.000015 642.511475,123.000015 
M680.973816,241.831604 
	C681.336609,240.422302 681.699341,239.013016 682.137878,237.309662 
	C657.391479,237.309662 633.387878,237.309662 609.000183,237.309662 
	C609.153870,239.016602 609.276733,240.380859 609.418945,241.960220 
	C633.246521,241.960220 656.654602,241.960220 680.973816,241.831604 
M331.006805,87.826584 
	C354.877380,87.826584 378.747925,87.826584 403.012634,87.826584 
	C402.846039,85.980965 402.722961,84.617409 402.599396,83.248489 
	C378.288971,83.248489 354.418976,83.248489 330.264130,83.248489 
	C330.264130,84.759987 330.264130,86.026352 331.006805,87.826584 
M632.500000,97.000053 
	C648.919312,97.000053 665.338623,97.000053 681.991272,97.000053 
	C681.879028,94.961044 681.809509,93.698807 681.737061,92.382309 
	C657.343262,92.382309 633.297363,92.382309 609.031738,92.382309 
	C609.122986,94.038689 609.192505,95.300766 609.286133,97.000053 
	C616.901550,97.000053 624.200806,97.000053 632.500000,97.000053 
M173.794296,213.997803 
	C192.400421,213.997803 211.006546,213.997803 230.020111,213.997803 
	C229.844788,211.990005 229.725449,210.623291 229.568634,208.827454 
	C220.576736,208.827454 211.981201,208.827454 203.320786,208.827454 
	C203.050888,206.305862 202.829712,204.239502 202.625977,202.336182 
	C200.240204,202.336182 198.315033,202.336182 196.222855,202.336182 
	C196.061127,204.584625 195.921921,206.519897 195.740265,209.045471 
	C187.121460,209.045471 178.715195,209.045471 170.308945,209.045471 
	C169.992233,209.582230 169.675537,210.118973 169.358826,210.655731 
	C170.526657,211.767380 171.694489,212.879028 173.794296,213.997803 
M356.511627,75.000000 
	C368.260590,75.000000 380.009552,75.000000 391.984039,75.000000 
	C391.876892,72.977036 391.810059,71.714729 391.710876,69.841644 
	C377.382599,69.841644 363.344482,69.841644 348.865173,69.841644 
	C348.865173,64.288048 348.865173,59.356804 348.865173,54.413776 
	C346.701172,54.413776 345.004364,54.413776 343.325165,54.413776 
	C343.325165,61.389668 343.325165,67.964867 343.325165,75.000000 
	C347.598175,75.000000 351.557434,75.000000 356.511627,75.000000 
M480.000000,373.500122 
	C480.000000,381.253998 480.000000,389.007874 480.000000,397.037079 
	C482.362305,396.910980 483.955566,396.825928 486.165649,396.707947 
	C486.165649,390.694183 486.165649,384.972137 486.165649,378.841370 
	C490.068268,378.841370 493.334412,378.841370 496.986633,378.841370 
	C496.840271,376.998322 496.731842,375.632660 496.588348,373.825592 
	C492.942047,373.825592 489.691406,373.825592 485.831909,373.825592 
	C485.831909,366.317108 485.831909,359.267578 485.831909,351.958832 
	C483.599274,352.089478 482.010437,352.182465 480.000000,352.300110 
	C480.000000,359.256134 480.000000,365.878174 480.000000,373.500122 
M591.999268,232.488113 
	C591.999268,222.403061 591.999268,212.318024 591.999268,202.323181 
	C589.295349,202.323181 587.372009,202.323181 585.388306,202.323181 
	C585.388306,217.012100 585.388306,231.383087 585.388306,245.675903 
	C587.703552,245.675903 589.626831,245.675903 591.999268,245.675903 
	C591.999268,241.409744 591.999268,237.446259 591.999268,232.488113 
M446.500183,365.000092 
	C454.920746,365.000092 463.341339,365.000092 471.981934,365.000092 
	C471.875244,362.981049 471.808502,361.717773 471.709625,359.846619 
	C465.035889,359.846619 458.643433,359.846619 452.211914,359.846619 
	C452.042053,356.622742 451.904999,354.020996 451.767395,351.409271 
	C449.330688,351.409271 447.301025,351.409271 445.201782,351.409271 
	C445.037384,354.398224 444.894653,356.993439 444.728821,360.008789 
	C438.098846,360.008789 431.837830,360.008789 425.335571,360.008789 
	C425.335571,361.835480 425.335571,363.197845 425.335571,365.000092 
	C432.251343,365.000092 438.875824,365.000092 446.500183,365.000092 
M145.000000,219.501770 
	C145.000000,213.745010 145.000000,207.988251 145.000000,201.953735 
	C142.614304,202.089417 141.022598,202.179932 139.389252,202.272827 
	C139.389252,217.004639 139.389252,231.376968 139.389252,246.024109 
	C141.385574,245.910599 142.977280,245.820099 145.000000,245.705109 
	C145.000000,237.085159 145.000000,228.793030 145.000000,219.501770 
M682.888855,422.067474 
	C682.924316,421.074341 683.224121,419.994843 682.934448,419.107941 
	C682.476379,417.705994 681.712036,415.381470 680.919556,415.314514 
	C678.992737,415.151703 676.564941,415.557831 675.137207,416.717529 
	C674.174377,417.499573 673.827637,420.366058 674.500732,421.584534 
	C676.411438,425.043304 679.494934,424.634308 682.888855,422.067474 
z"/>
<path fill="#9B4B66" opacity="1.000000" stroke="none" 
	d="
M301.138794,62.678375 
	C307.996521,67.212784 310.969604,74.339058 309.582336,80.999123 
	C307.521362,90.893661 300.053040,96.268867 286.381958,97.282455 
	C286.381958,102.289879 286.381958,107.336258 286.381958,112.866348 
	C297.405548,112.866348 308.324341,112.866348 319.629456,112.866348 
	C319.739716,114.683060 319.822510,116.047188 319.923950,117.718781 
	C295.292023,117.718781 271.043793,117.718781 246.365677,117.718781 
	C246.266251,116.341499 246.167679,114.975792 246.034378,113.129105 
	C257.350983,113.129105 268.282318,113.129105 279.603394,113.129105 
	C279.603394,107.645737 279.603394,102.607094 279.603394,98.448624 
	C274.227325,96.462944 269.039429,95.038338 264.314911,92.683929 
	C257.606628,89.340935 255.452591,82.976883 256.138458,76.034439 
	C256.855743,68.774117 261.075378,63.367767 268.100616,61.147697 
	C279.076355,57.679207 290.112579,57.644897 301.138794,62.678375 
M275.179810,65.370743 
	C274.406616,65.614380 273.627533,65.840889 272.861176,66.104385 
	C267.215454,68.045532 263.643127,71.888557 263.100342,77.878044 
	C262.656403,82.776871 267.130219,87.803841 273.094757,89.947433 
	C281.075897,92.815796 288.697510,92.079140 296.316132,88.369843 
	C301.054108,86.063042 302.639404,81.802986 302.697723,77.534492 
	C302.752319,73.540855 300.599762,69.799614 296.376495,67.698997 
	C289.810577,64.433167 283.102081,63.324722 275.179810,65.370743 
z"/>
<path fill="#9B4B66" opacity="1.000000" stroke="none" 
	d="
M416.742493,230.992340 
	C410.787048,230.997116 405.309479,230.997116 399.418396,230.997116 
	C399.418396,233.974503 399.418396,236.669037 399.418396,239.843994 
	C410.030792,239.843994 420.611237,239.843994 431.586548,239.843994 
	C431.729675,241.642136 431.838379,243.007568 431.973206,244.701355 
	C407.686310,244.701355 383.783508,244.701355 359.417389,244.701355 
	C359.284882,243.414017 359.144196,242.047180 358.936737,240.031586 
	C370.057831,240.031586 380.781647,240.031586 391.742798,240.031586 
	C391.742798,236.837830 391.742798,234.254044 391.742798,231.197281 
	C385.014648,231.197281 378.426331,231.197281 371.421082,231.197281 
	C371.421082,222.044037 371.421082,213.350235 371.421082,204.325714 
	C387.360809,204.325714 403.260956,204.325714 419.891663,204.325714 
	C419.891663,212.660583 419.939392,221.065125 419.777252,229.465622 
	C419.767120,229.989197 418.110809,230.480972 416.742493,230.992340 
M379.829498,225.947418 
	C390.745117,225.947418 401.660767,225.947418 412.560547,225.947418 
	C412.560547,219.945999 412.560547,214.583374 412.560547,209.349579 
	C400.881775,209.349579 389.644989,209.349579 377.624908,209.349579 
	C378.069458,215.080460 378.484253,220.428375 379.829498,225.947418 
z"/>
<path fill="#9B4B66" opacity="1.000000" stroke="none" 
	d="
M290.996063,209.000000 
	C296.463348,209.000000 301.431702,209.000000 306.716003,209.000000 
	C306.809387,210.696945 306.878754,211.957458 306.983887,213.867813 
	C293.046265,213.867813 279.325043,213.867813 265.308411,213.867813 
	C265.308411,222.410431 265.308411,230.325821 265.308411,238.887131 
	C279.730316,238.887131 294.117920,238.887131 308.729095,238.887131 
	C308.729095,240.795609 308.729095,242.063721 308.729095,243.785416 
	C301.428925,243.785416 294.150635,243.785416 286.439758,243.785416 
	C286.439758,250.257034 286.439758,256.292847 286.439758,262.826355 
	C297.357452,262.826355 308.279266,262.826355 319.591370,262.826355 
	C319.730988,264.647919 319.835754,266.014343 319.965332,267.704803 
	C295.319214,267.704803 271.058960,267.704803 246.366150,267.704803 
	C246.266998,266.343384 246.167496,264.977142 246.032440,263.122681 
	C257.354950,263.122681 268.291840,263.122681 279.610291,263.122681 
	C279.610291,256.635620 279.610291,250.601807 279.610291,244.073654 
	C272.872986,244.073654 266.280548,244.073654 259.350616,244.073654 
	C259.350616,232.342834 259.350616,221.093552 259.350616,209.000000 
	C269.668060,209.000000 280.082611,209.000000 290.996063,209.000000 
z"/>
<path fill="#9B4B66" opacity="1.000000" stroke="none" 
	d="
M399.999512,381.169800 
	C399.892731,379.250641 399.786163,377.811310 399.652130,376.000549 
	C397.837097,376.000549 396.357544,376.119049 394.903107,375.978302 
	C390.514252,375.553650 387.671021,376.168396 385.907654,381.436340 
	C382.761749,390.834381 375.837006,393.759186 362.787933,392.994141 
	C356.301636,392.613861 349.652924,386.977661 347.584106,380.105652 
	C344.500397,369.862579 348.945618,358.455750 358.071198,355.186737 
	C366.146484,352.294006 379.659180,352.857666 384.969147,362.472687 
	C385.205597,362.900879 385.605438,363.245331 385.808472,363.684601 
	C389.582214,371.849274 389.910706,372.016998 399.897705,370.395233 
	C399.897705,364.570953 399.897705,358.648834 399.897705,352.373291 
	C402.396576,352.373291 404.424011,352.373291 406.728180,352.373291 
	C406.728180,366.766998 406.728180,381.005981 406.728180,395.619568 
	C404.616089,395.619568 402.588654,395.619568 399.999756,395.619568 
	C399.999756,390.883087 399.999756,386.266327 399.999512,381.169800 
M355.385468,381.824310 
	C359.446167,386.504730 364.175659,388.896210 370.605591,387.074280 
	C376.394135,385.434082 380.411713,380.976593 380.986694,374.790039 
	C381.518036,369.072784 378.296112,363.235107 373.463867,360.820465 
	C367.670380,357.925507 360.673004,359.635529 357.513702,362.950439 
	C352.262878,368.459961 352.338898,374.593811 355.385468,381.824310 
z"/>
<path fill="#9B4B66" opacity="1.000000" stroke="none" 
	d="
M190.000000,251.000107 
	C180.878479,251.000107 172.256958,251.000107 163.340424,251.000107 
	C163.340424,249.201385 163.340424,247.838562 163.340424,246.025909 
	C174.167145,246.025909 184.754089,246.025909 195.685822,246.025909 
	C195.812500,244.019928 195.912689,242.433121 195.975311,241.441528 
	C190.040283,239.704300 184.419098,238.245407 178.932632,236.388458 
	C175.176376,235.117111 173.908371,232.001678 173.970596,228.138885 
	C174.030991,224.390152 175.660553,221.597580 179.120316,220.507751 
	C183.758331,219.046814 188.538879,217.385468 193.317780,217.177307 
	C200.539093,216.862747 207.953171,216.979675 215.020645,218.314545 
	C221.370422,219.513855 225.622192,223.253494 225.182724,228.958694 
	C224.787430,234.090332 221.818481,236.206284 217.948959,237.878799 
	C215.722794,238.841019 213.295929,239.515671 210.894272,239.845612 
	C208.485352,240.176559 205.995499,239.918335 203.283417,239.918335 
	C203.283417,242.103455 203.283417,243.701324 203.283417,245.898376 
	C214.005753,245.898376 224.731476,245.898376 235.721527,245.898376 
	C235.811676,247.747375 235.873474,249.015213 235.970245,251.000107 
	C220.663086,251.000107 205.581543,251.000107 190.000000,251.000107 
M183.807770,231.934677 
	C187.902100,232.926041 192.020767,234.812027 196.085114,234.701447 
	C202.357681,234.530762 208.624756,233.150589 214.817139,231.901566 
	C216.038086,231.655304 217.715698,229.681442 217.716965,228.502747 
	C217.718216,227.324753 216.092957,225.514526 214.810593,225.084030 
	C210.987930,223.800766 206.956253,222.183167 203.056442,222.304855 
	C196.779465,222.500717 190.447083,223.590057 184.325378,225.074265 
	C180.762741,225.938019 179.595764,228.663116 183.807770,231.934677 
z"/>
<path fill="#9B4B66" opacity="1.000000" stroke="none" 
	d="
M575.866821,107.276047 
	C575.883484,108.990967 575.818542,110.268814 575.717224,112.262558 
	C561.217041,112.262558 547.017029,112.262558 532.404602,112.262558 
	C532.404602,102.674561 532.404602,92.649155 532.404602,82.140480 
	C541.731628,82.140480 550.979309,82.140480 560.610046,82.140480 
	C560.610046,75.975143 560.610046,70.279472 560.610046,64.103172 
	C551.223450,64.103172 541.973083,64.103172 532.337646,64.103172 
	C532.253113,62.286900 532.189636,60.922913 532.112732,59.269505 
	C544.077271,59.269505 555.661621,59.269505 567.623901,59.269505 
	C567.623901,68.386276 567.623901,77.412125 567.623901,86.919365 
	C558.206543,86.919365 548.958008,86.919365 539.359985,86.919365 
	C539.359985,93.964119 539.359985,100.542381 539.359985,107.759476 
	C543.614929,107.759476 548.023926,107.960121 552.407959,107.714127 
	C559.634521,107.308655 566.843445,106.594139 574.064941,106.081947 
	C574.617676,106.042740 575.210876,106.573257 575.866821,107.276047 
z"/>
<path fill="#9B4B66" opacity="1.000000" stroke="none" 
	d="
M357.005951,128.000046 
	C351.882965,128.000046 347.258820,128.000046 342.322571,128.000046 
	C342.322571,121.957230 342.322571,116.380196 342.322571,110.156059 
	C355.998810,110.156059 369.701050,110.156059 383.693298,110.156059 
	C383.693298,107.274490 383.693298,105.019722 383.693298,102.140656 
	C370.008484,102.140656 356.291748,102.140656 342.287781,102.140656 
	C342.189758,100.282570 342.123077,99.018753 342.036194,97.371796 
	C358.287140,97.371796 374.320160,97.371796 390.678101,97.371796 
	C390.678101,103.043640 390.678101,108.621109 390.678101,114.844246 
	C377.001282,114.844246 363.298950,114.844246 349.306702,114.844246 
	C349.306702,117.733116 349.306702,119.987808 349.306702,122.859528 
	C363.657867,122.859528 378.039581,122.859528 392.710114,122.859528 
	C392.808380,124.717491 392.875244,125.981102 392.982025,128.000046 
	C381.005463,128.000046 369.255127,128.000046 357.005951,128.000046 
z"/>
<path fill="#9B4B66" opacity="1.000000" stroke="none" 
	d="
M632.029480,261.000000 
	C642.810547,261.000000 653.095581,261.000000 663.683105,261.000000 
	C663.683105,258.617950 663.683105,256.696960 663.683105,254.154449 
	C649.706848,254.154449 635.653442,254.154449 621.600037,254.154449 
	C621.231018,253.698105 620.862061,253.241776 620.493103,252.785431 
	C621.499695,251.530487 622.490295,249.197418 623.515320,249.182159 
	C639.122070,248.949768 654.733276,249.020569 670.669922,249.020569 
	C670.669922,254.693695 670.669922,259.938324 670.669922,265.830658 
	C656.347107,265.830658 641.977844,265.830658 627.314575,265.830658 
	C627.314575,268.385986 627.314575,270.306976 627.314575,272.847778 
	C642.297791,272.847778 657.348938,272.847778 672.400024,272.847778 
	C672.769409,273.303894 673.138794,273.760010 673.508179,274.216095 
	C672.500854,275.470612 671.508789,277.803894 670.484009,277.818359 
	C654.211182,278.047546 637.934204,277.979614 621.330933,277.979614 
	C621.330933,272.307220 621.330933,267.062653 621.330933,261.000000 
	C624.701782,261.000000 628.117615,261.000000 632.029480,261.000000 
z"/>
<path fill="#9B4B66" opacity="1.000000" stroke="none" 
	d="
M279.635437,376.726013 
	C284.445221,373.819183 289.189545,371.333679 290.343231,364.994049 
	C282.293793,364.994049 274.513550,364.994049 266.337708,364.994049 
	C266.254639,363.291077 266.188019,361.925598 266.097717,360.074982 
	C274.416382,360.074982 282.352112,360.074982 290.636078,360.074982 
	C290.851074,357.386505 291.031799,355.126709 291.246948,352.436096 
	C293.248047,352.436096 295.287384,352.436096 297.712891,352.436096 
	C297.873627,354.633667 298.039825,356.906097 298.252716,359.816772 
	C306.275024,359.816772 314.339813,359.816772 322.342377,359.816772 
	C323.710815,363.817841 322.725739,365.170624 318.974915,365.056885 
	C312.163300,364.850342 305.340942,364.998291 298.462708,364.998291 
	C300.146729,373.049805 310.890015,379.606934 327.108551,382.584503 
	C326.148834,386.608063 323.783905,389.001221 319.740295,387.756134 
	C310.604126,384.942963 301.724060,381.437988 295.763977,375.356476 
	C287.039917,379.399231 278.775269,383.120361 270.612854,387.053711 
	C265.959473,389.296112 263.596008,386.762421 261.455688,383.503204 
	C267.493866,381.276093 273.404175,379.096161 279.635437,376.726013 
z"/>
<path fill="#9B4B66" opacity="1.000000" stroke="none" 
	d="
M501.827698,62.342537 
	C508.390594,72.306656 504.646362,83.648323 491.956116,86.551895 
	C483.696289,88.441757 474.536346,87.786469 465.995239,86.650528 
	C458.142731,85.606148 453.328064,78.898781 453.016937,71.841667 
	C452.757111,65.948189 457.873413,58.475914 465.066132,56.659363 
	C475.865875,53.931847 486.909851,53.038376 497.296600,58.762604 
	C498.855560,59.621777 500.155090,60.951729 501.827698,62.342537 
M492.164642,63.056213 
	C485.165680,59.922192 477.904449,59.570683 470.537964,61.270321 
	C464.527252,62.657154 460.580658,66.713333 460.426361,71.272987 
	C460.270508,75.878708 463.870483,79.832825 470.069946,81.519714 
	C476.188721,83.184631 482.203644,82.667900 488.452454,81.349388 
	C497.573242,79.424858 500.908539,68.391060 492.164642,63.056213 
z"/>
<path fill="#9B4B66" opacity="1.000000" stroke="none" 
	d="
M591.998901,261.027344 
	C591.998901,266.810242 591.998901,272.097626 591.998901,277.686218 
	C575.279236,277.686218 559.047180,277.686218 542.406494,277.686218 
	C542.406494,268.680267 542.406494,259.654541 542.406494,250.312241 
	C558.720337,250.312241 574.952393,250.312241 591.998901,250.312241 
	C591.998901,253.702469 591.998901,257.117157 591.998901,261.027344 
M585.000000,264.482422 
	C585.000000,261.406158 585.000000,258.329895 585.000000,255.331146 
	C572.584351,255.331146 561.015808,255.331146 549.428955,255.331146 
	C549.428955,261.365173 549.428955,267.059845 549.428955,272.662048 
	C561.429077,272.662048 572.997620,272.662048 585.000000,272.662048 
	C585.000000,270.033539 585.000000,267.738190 585.000000,264.482422 
z"/>
<path fill="#9B4B66" opacity="1.000000" stroke="none" 
	d="
M477.660950,409.970764 
	C479.070770,407.255432 480.011932,404.558289 481.132141,401.347931 
	C482.098389,401.347931 483.798218,401.347931 485.750244,401.347931 
	C485.750244,410.144745 485.750244,418.726379 485.750244,427.654572 
	C469.679596,427.654572 453.779449,427.654572 437.438538,427.654572 
	C437.438538,419.078918 437.438538,410.382294 437.438538,401.344055 
	C439.329193,401.344055 441.246643,401.344055 443.777405,401.344055 
	C443.902496,403.910858 444.035522,406.640686 444.198700,409.988922 
	C455.340546,409.988922 466.266388,409.988922 477.660950,409.970764 
M461.500977,423.000000 
	C467.588776,423.000000 473.676575,423.000000 479.677246,423.000000 
	C479.677246,419.959442 479.677246,417.705078 479.677246,415.391174 
	C467.655029,415.391174 455.955811,415.391174 444.322632,415.391174 
	C444.322632,418.040314 444.322632,420.294678 444.322632,423.000000 
	C449.921814,423.000000 455.212006,423.000000 461.500977,423.000000 
z"/>
<path fill="#9B4B66" opacity="1.000000" stroke="none" 
	d="
M113.003723,250.000000 
	C123.784081,250.000000 134.065430,250.000000 144.670349,250.000000 
	C144.670349,259.357300 144.670349,268.264801 144.670349,277.587860 
	C129.029648,277.587860 113.346169,277.587860 97.329590,277.587860 
	C97.329590,268.642639 97.329590,259.735321 97.329590,250.000000 
	C102.340538,250.000000 107.422630,250.000000 113.003723,250.000000 
M122.497849,255.000000 
	C116.089340,255.000000 109.680832,255.000000 103.326515,255.000000 
	C103.326515,261.394806 103.326515,266.968597 103.326515,272.592712 
	C115.340126,272.592712 127.022774,272.592712 138.673462,272.592712 
	C138.673462,266.606018 138.673462,261.031738 138.673462,255.000000 
	C133.402191,255.000000 128.448853,255.000000 122.497849,255.000000 
z"/>
<path fill="#9B4B66" opacity="1.000000" stroke="none" 
	d="
M628.043335,401.999908 
	C631.830200,402.000000 635.133423,402.000000 638.745300,402.000000 
	C638.950684,405.077057 639.848267,407.961670 635.539124,407.973480 
	C622.576111,408.009064 609.612854,407.986298 596.327271,407.986298 
	C596.327271,391.625671 596.327271,375.709381 596.327271,359.395416 
	C608.698425,359.395416 621.076172,359.395416 633.747925,359.395416 
	C633.808167,360.762878 633.864136,362.031952 633.948303,363.940369 
	C623.665344,363.940369 613.599548,363.940369 603.273621,363.940369 
	C603.273621,377.151428 603.273621,389.733917 603.273621,403.261780 
	C611.503052,402.834167 619.531372,402.416992 628.043335,401.999908 
z"/>
<path fill="#9B4B66" opacity="1.000000" stroke="none" 
	d="
M173.067596,268.788971 
	C173.854660,258.300537 181.831223,256.115936 189.378174,255.325958 
	C197.500824,254.475723 205.916977,255.103531 214.061722,256.175568 
	C221.684540,257.178925 225.833282,261.810089 225.997879,267.277466 
	C226.155136,272.501831 223.733078,277.062469 218.823212,278.512390 
	C206.101868,282.269135 193.316315,282.520081 180.538254,278.231415 
	C175.942413,276.688904 174.408066,273.157928 173.067596,268.788971 
M213.795563,273.648682 
	C215.520889,271.646637 218.989227,269.122650 218.581055,267.759430 
	C217.892654,265.460358 215.045334,263.030609 212.580338,262.181274 
	C204.001999,259.225616 195.178314,259.725433 186.486481,262.050262 
	C183.560745,262.832825 180.967972,264.028809 180.935547,267.952118 
	C180.903137,271.878387 183.470901,273.137268 186.393753,273.934418 
	C195.250961,276.349976 204.156021,276.450134 213.795563,273.648682 
z"/>
<path fill="#9B4B66" opacity="1.000000" stroke="none" 
	d="
M646.971558,231.000244 
	C641.121094,230.378082 635.646484,230.230972 630.422302,229.011093 
	C624.179077,227.553253 620.196960,222.889145 620.047180,217.941757 
	C619.864746,211.915207 623.871338,207.869812 628.640930,206.453049 
	C640.964478,202.792419 653.610596,201.585541 665.642212,207.954910 
	C672.452209,211.560028 672.827515,221.602753 666.669312,226.129776 
	C660.878845,230.386475 654.375183,231.405182 646.971558,231.000244 
M651.534912,225.006927 
	C654.380310,224.327332 657.477295,224.125473 659.985107,222.804794 
	C661.736938,221.882172 663.797485,219.362000 663.697021,217.675980 
	C663.579773,215.708832 661.665222,212.919464 659.828430,212.138840 
	C649.835693,207.891907 639.703796,207.960037 629.969482,213.085907 
	C626.122314,215.111771 625.984192,219.892593 629.797913,221.828293 
	C636.312195,225.134689 643.209778,227.214706 651.534912,225.006927 
z"/>
<path fill="#9B4B66" opacity="1.000000" stroke="none" 
	d="
M457.011383,239.979614 
	C459.072266,233.633942 461.567627,227.756943 462.821991,221.626022 
	C463.732300,217.176743 462.999756,212.391327 462.999756,207.383514 
	C465.381287,207.383514 467.408203,207.383514 470.266296,207.383514 
	C467.672272,227.293701 473.762360,243.602051 491.006958,254.991409 
	C489.082245,256.669830 487.526672,258.026337 485.470032,259.819824 
	C476.861877,254.619507 472.010315,245.421753 466.948883,237.382095 
	C462.291718,243.723892 457.816315,250.567780 452.563995,256.751801 
	C447.667725,262.516724 447.304047,262.207855 442.576416,256.833466 
	C447.395569,251.289627 452.154907,245.814560 457.011383,239.979614 
z"/>
<path fill="#9B4B66" opacity="1.000000" stroke="none" 
	d="
M497.000854,228.000000 
	C497.000854,219.212158 497.000854,210.924301 497.000854,202.325592 
	C499.367828,202.325592 501.287140,202.325592 503.846466,202.325592 
	C503.846466,212.609100 503.846466,222.988693 503.846466,233.840408 
	C508.704468,233.840408 512.960754,233.840408 517.603638,233.840408 
	C517.734802,235.656235 517.833435,237.022064 517.966858,238.868973 
	C513.317505,238.868973 509.049316,238.868973 504.150146,238.868973 
	C504.150146,252.672623 504.150146,266.041718 504.150146,279.695679 
	C501.600464,279.695679 499.678528,279.695679 497.000854,279.695679 
	C497.000854,262.649658 497.000854,245.574829 497.000854,228.000000 
z"/>
<path fill="#9B4B66" opacity="1.000000" stroke="none" 
	d="
M646.000000,407.999878 
	C646.000000,389.224182 646.000000,370.948425 646.000000,352.342102 
	C648.323303,352.342102 650.241943,352.342102 652.808777,352.342102 
	C652.808777,362.256134 652.808777,372.297852 652.808777,382.812256 
	C657.338745,382.812256 661.258118,382.812256 665.573181,382.812256 
	C665.727539,384.624390 665.843933,385.990906 666.001343,387.839539 
	C661.682495,387.839539 657.746948,387.839539 653.177490,387.839539 
	C653.177490,401.972198 653.177490,415.674316 653.177490,429.678589 
	C650.630493,429.678589 648.707886,429.678589 646.000000,429.678589 
	C646.000000,422.682281 646.000000,415.591064 646.000000,407.999878 
z"/>
<path fill="#9B4B66" opacity="1.000000" stroke="none" 
	d="
M286.786194,401.001740 
	C277.163757,401.000641 268.019226,401.000641 258.445862,401.000641 
	C258.283112,399.413666 258.142883,398.046173 257.965942,396.320862 
	C282.397125,396.320862 306.443939,396.320862 330.727966,396.320862 
	C330.727966,397.796692 330.727966,399.062042 330.727966,400.780151 
	C320.096954,400.780151 309.496490,400.780151 298.244293,400.780151 
	C298.244293,410.569672 298.244293,419.945312 298.244293,429.649628 
	C295.688385,429.649628 293.773743,429.649628 290.997925,429.649628 
	C290.997925,421.550232 290.908875,413.307373 291.046906,405.068329 
	C291.094330,402.238251 290.532043,400.499023 286.786194,401.001740 
z"/>
<path fill="#9B4B66" opacity="1.000000" stroke="none" 
	d="
M465.342346,390.156921 
	C457.803619,397.678284 441.613434,398.555664 433.652466,392.120880 
	C427.580170,387.212708 427.220428,378.825043 432.859894,373.640869 
	C440.141174,366.947418 457.653076,367.085266 464.393524,373.889099 
	C469.085480,378.625244 469.507141,384.122986 465.342346,390.156921 
M454.095001,375.091339 
	C449.153503,373.529266 444.484131,374.199829 439.884918,376.515381 
	C437.254913,377.839447 435.197510,379.575195 436.118652,382.600037 
	C436.751343,384.677765 438.064758,387.059235 439.800293,388.187714 
	C443.885193,390.843750 448.425751,391.328613 453.409912,390.139587 
	C457.782104,389.096497 461.058075,387.091705 461.400543,382.735291 
	C461.717346,378.705414 458.677155,376.386688 454.095001,375.091339 
z"/>
<path fill="#9B4B66" opacity="1.000000" stroke="none" 
	d="
M524.080444,407.000580 
	C521.292786,407.000580 518.992737,407.000580 516.348755,407.000580 
	C516.348755,390.880615 516.348755,375.183197 516.348755,359.245667 
	C518.505615,359.245667 520.428406,359.245667 522.813293,359.245667 
	C522.813293,373.315735 522.813293,387.237946 522.813293,402.246307 
	C535.694885,401.562561 548.083008,400.904999 560.729004,400.233795 
	C560.729004,402.117584 560.729004,403.714661 560.729004,406.469879 
	C548.648621,406.647156 536.608337,406.823883 524.080444,407.000580 
z"/>
<path fill="#9B4B66" opacity="1.000000" stroke="none" 
	d="
M583.999634,85.000000 
	C583.999634,73.875908 583.999634,63.251808 583.999634,52.321259 
	C586.376526,52.321259 588.301208,52.321259 590.614136,52.321259 
	C590.614136,77.955902 590.614136,103.659676 590.614136,129.678329 
	C588.621094,129.678329 586.696411,129.678329 583.999634,129.678329 
	C583.999634,115.005524 583.999634,100.252762 583.999634,85.000000 
z"/>
<path fill="#9B4B66" opacity="1.000000" stroke="none" 
	d="
M483.000000,96.000000 
	C494.124481,96.000000 504.748962,96.000000 515.664734,96.000000 
	C515.664734,97.802483 515.664734,99.165886 515.664734,100.994934 
	C504.493164,100.994934 493.572296,100.994934 482.176575,100.994934 
	C482.176575,110.687820 482.176575,119.937889 482.176575,129.580215 
	C480.010284,129.580215 478.316986,129.580215 476.145447,129.580215 
	C476.145447,120.321503 476.145447,111.059448 476.145447,101.165596 
	C464.665009,101.165596 453.619690,101.165596 442.288361,101.165596 
	C442.189484,99.281532 442.123108,98.017166 442.017242,96.000000 
	C455.662750,96.000000 469.081390,96.000000 483.000000,96.000000 
z"/>
<path fill="#9B4B66" opacity="1.000000" stroke="none" 
	d="
M115.100204,211.197128 
	C106.047272,211.076340 97.403160,211.076340 88.362518,211.076340 
	C88.261002,209.309357 88.182556,207.943939 88.087547,206.290131 
	C100.215225,206.290131 111.956467,206.290131 123.891121,206.290131 
	C121.928566,226.983643 108.695824,238.007339 91.633919,246.030762 
	C87.134064,248.146820 85.478935,245.063400 83.007591,242.147751 
	C87.681999,239.949768 92.320000,238.216980 96.496460,235.714050 
	C105.908012,230.073761 113.515648,222.830750 115.100204,211.197128 
z"/>
<path fill="#9B4B66" opacity="1.000000" stroke="none" 
	d="
M567.001404,425.749023 
	C567.000488,401.133545 567.000488,376.989349 567.000488,352.432312 
	C568.976685,352.432312 570.674927,352.432312 572.689941,352.432312 
	C572.689941,377.996765 572.689941,403.586060 572.689941,429.517883 
	C569.827271,430.059601 566.684021,431.472931 567.001404,425.749023 
z"/>
<path fill="#9B4B66" opacity="1.000000" stroke="none" 
	d="
M535.031982,235.689270 
	C535.012024,225.410126 535.012024,215.604706 535.012024,205.404556 
	C537.340698,205.404556 539.364807,205.404556 541.875732,205.404556 
	C541.875732,214.383484 541.875732,223.307800 541.875732,233.273514 
	C554.320618,232.577423 566.257080,231.909760 578.586365,231.220123 
	C578.586365,232.943497 578.586365,234.651215 578.586365,237.525497 
	C564.893982,237.675140 551.182556,237.855957 537.470703,237.896286 
	C536.666138,237.898651 535.858337,236.766922 535.031982,235.689270 
z"/>
<path fill="#9B4B66" opacity="1.000000" stroke="none" 
	d="
M399.894226,400.000000 
	C402.349854,400.000000 404.318817,400.000000 406.642334,400.000000 
	C406.642334,410.099365 406.642334,419.799164 406.642334,429.747131 
	C404.508942,429.747131 402.586029,429.747131 400.198792,429.747131 
	C400.198792,421.702911 400.198792,413.776306 400.198792,405.214478 
	C385.053284,405.214478 370.349609,405.214478 355.346375,405.214478 
	C355.346375,403.216888 355.346375,401.853729 355.346375,400.000000 
	C370.180298,400.000000 384.793915,400.000000 399.894226,400.000000 
z"/>
<path fill="#9B4B66" opacity="1.000000" stroke="none" 
	d="
M671.833984,79.856964 
	C670.128113,80.533699 668.523010,80.963699 666.916382,80.969360 
	C652.141113,81.021454 637.365601,81.000046 622.298462,81.000046 
	C622.298462,71.902832 622.298462,63.324944 622.298462,54.375965 
	C624.390320,54.375965 626.417114,54.375965 628.931335,54.375965 
	C628.931335,61.445862 628.931335,68.372704 628.931335,75.999619 
	C634.983337,75.999619 640.578674,75.999359 646.173950,75.999680 
	C653.500549,76.000092 660.827942,76.060455 668.153381,75.968796 
	C670.657471,75.937454 672.524353,76.225906 671.833984,79.856964 
z"/>
<path fill="#9B4B66" opacity="1.000000" stroke="none" 
	d="
M420.000000,266.003876 
	C420.000000,270.796295 420.000000,275.093048 420.000000,279.708588 
	C417.969727,279.821808 416.377228,279.910614 414.138184,280.035461 
	C414.138184,272.716034 414.138184,265.660217 414.138184,258.152161 
	C398.944183,258.152161 384.370667,258.152161 369.404083,258.152161 
	C369.267883,256.349792 369.164795,254.985413 369.037018,253.294800 
	C386.003754,253.294800 402.587158,253.294800 420.000000,253.294800 
	C420.000000,257.350403 420.000000,261.429321 420.000000,266.003876 
z"/>
<path fill="#9B4B66" opacity="1.000000" stroke="none" 
	d="
M643.009277,123.000015 
	C652.796021,123.000015 662.084900,123.000015 671.663696,123.000015 
	C671.663696,124.804588 671.663696,126.167252 671.663696,127.766190 
	C655.162231,127.766190 638.922913,127.766190 622.341675,127.766190 
	C622.341675,119.867393 622.341675,112.166695 622.341675,104.235374 
	C624.520447,104.235374 626.442810,104.235374 628.830322,104.235374 
	C628.830322,110.331436 628.830322,116.256790 628.830322,123.000015 
	C633.684998,123.000015 638.098267,123.000015 643.009277,123.000015 
z"/>
<path fill="#9B4B66" opacity="1.000000" stroke="none" 
	d="
M680.518250,241.895905 
	C656.654602,241.960220 633.246521,241.960220 609.418945,241.960220 
	C609.276733,240.380859 609.153870,239.016602 609.000183,237.309662 
	C633.387878,237.309662 657.391479,237.309662 682.137878,237.309662 
	C681.699341,239.013016 681.336609,240.422302 680.518250,241.895905 
z"/>
<path fill="#9B4B66" opacity="1.000000" stroke="none" 
	d="
M330.635468,87.559647 
	C330.264130,86.026352 330.264130,84.759987 330.264130,83.248489 
	C354.418976,83.248489 378.288971,83.248489 402.599396,83.248489 
	C402.722961,84.617409 402.846039,85.980965 403.012634,87.826584 
	C378.747925,87.826584 354.877380,87.826584 330.635468,87.559647 
z"/>
<path fill="#9B4B66" opacity="1.000000" stroke="none" 
	d="
M632.000000,97.000053 
	C624.200806,97.000053 616.901550,97.000053 609.286133,97.000053 
	C609.192505,95.300766 609.122986,94.038689 609.031738,92.382309 
	C633.297363,92.382309 657.343262,92.382309 681.737061,92.382309 
	C681.809509,93.698807 681.879028,94.961044 681.991272,97.000053 
	C665.338623,97.000053 648.919312,97.000053 632.000000,97.000053 
z"/>
<path fill="#9B4B66" opacity="1.000000" stroke="none" 
	d="
M173.328308,213.994247 
	C171.694489,212.879028 170.526657,211.767380 169.358826,210.655731 
	C169.675537,210.118973 169.992233,209.582230 170.308945,209.045471 
	C178.715195,209.045471 187.121460,209.045471 195.740265,209.045471 
	C195.921921,206.519897 196.061127,204.584625 196.222855,202.336182 
	C198.315033,202.336182 200.240204,202.336182 202.625977,202.336182 
	C202.829712,204.239502 203.050888,206.305862 203.320786,208.827454 
	C211.981201,208.827454 220.576736,208.827454 229.568634,208.827454 
	C229.725449,210.623291 229.844788,211.990005 230.020111,213.997803 
	C211.006546,213.997803 192.400421,213.997803 173.328308,213.994247 
z"/>
<path fill="#9B4B66" opacity="1.000000" stroke="none" 
	d="
M356.014160,75.000000 
	C351.557434,75.000000 347.598175,75.000000 343.325165,75.000000 
	C343.325165,67.964867 343.325165,61.389668 343.325165,54.413776 
	C345.004364,54.413776 346.701172,54.413776 348.865173,54.413776 
	C348.865173,59.356804 348.865173,64.288048 348.865173,69.841644 
	C363.344482,69.841644 377.382599,69.841644 391.710876,69.841644 
	C391.810059,71.714729 391.876892,72.977036 391.984039,75.000000 
	C380.009552,75.000000 368.260590,75.000000 356.014160,75.000000 
z"/>
<path fill="#9B4B66" opacity="1.000000" stroke="none" 
	d="
M480.000000,373.000183 
	C480.000000,365.878174 480.000000,359.256134 480.000000,352.300110 
	C482.010437,352.182465 483.599274,352.089478 485.831909,351.958832 
	C485.831909,359.267578 485.831909,366.317108 485.831909,373.825592 
	C489.691406,373.825592 492.942047,373.825592 496.588348,373.825592 
	C496.731842,375.632660 496.840271,376.998322 496.986633,378.841370 
	C493.334412,378.841370 490.068268,378.841370 486.165649,378.841370 
	C486.165649,384.972137 486.165649,390.694183 486.165649,396.707947 
	C483.955566,396.825928 482.362305,396.910980 480.000000,397.037079 
	C480.000000,389.007874 480.000000,381.253998 480.000000,373.000183 
z"/>
<path fill="#9B4B66" opacity="1.000000" stroke="none" 
	d="
M591.999268,232.985443 
	C591.999268,237.446259 591.999268,241.409744 591.999268,245.675903 
	C589.626831,245.675903 587.703552,245.675903 585.388306,245.675903 
	C585.388306,231.383087 585.388306,217.012100 585.388306,202.323181 
	C587.372009,202.323181 589.295349,202.323181 591.999268,202.323181 
	C591.999268,212.318024 591.999268,222.403061 591.999268,232.985443 
z"/>
<path fill="#9B4B66" opacity="1.000000" stroke="none" 
	d="
M446.000244,365.000092 
	C438.875824,365.000092 432.251343,365.000092 425.335571,365.000092 
	C425.335571,363.197845 425.335571,361.835480 425.335571,360.008789 
	C431.837830,360.008789 438.098846,360.008789 444.728821,360.008789 
	C444.894653,356.993439 445.037384,354.398224 445.201782,351.409271 
	C447.301025,351.409271 449.330688,351.409271 451.767395,351.409271 
	C451.904999,354.020996 452.042053,356.622742 452.211914,359.846619 
	C458.643433,359.846619 465.035889,359.846619 471.709625,359.846619 
	C471.808502,361.717773 471.875244,362.981049 471.981934,365.000092 
	C463.341339,365.000092 454.920746,365.000092 446.000244,365.000092 
z"/>
<path fill="#9B4B66" opacity="1.000000" stroke="none" 
	d="
M145.000000,220.001343 
	C145.000000,228.793030 145.000000,237.085159 145.000000,245.705109 
	C142.977280,245.820099 141.385574,245.910599 139.389252,246.024109 
	C139.389252,231.376968 139.389252,217.004639 139.389252,202.272827 
	C141.022598,202.179932 142.614304,202.089417 145.000000,201.953735 
	C145.000000,207.988251 145.000000,213.745010 145.000000,220.001343 
z"/>
<path fill="#9B4B66" opacity="1.000000" stroke="none" 
	d="
M682.713013,422.458191 
	C679.494934,424.634308 676.411438,425.043304 674.500732,421.584534 
	C673.827637,420.366058 674.174377,417.499573 675.137207,416.717529 
	C676.564941,415.557831 678.992737,415.151703 680.919556,415.314514 
	C681.712036,415.381470 682.476379,417.705994 682.934448,419.107941 
	C683.224121,419.994843 682.924316,421.074341 682.713013,422.458191 
z"/>
<path fill="#000000" opacity="1.000000" stroke="none" 
	d="
M275.569092,65.229439 
	C283.102081,63.324722 289.810577,64.433167 296.376495,67.698997 
	C300.599762,69.799614 302.752319,73.540855 302.697723,77.534492 
	C302.639404,81.802986 301.054108,86.063042 296.316132,88.369843 
	C288.697510,92.079140 281.075897,92.815796 273.094757,89.947433 
	C267.130219,87.803841 262.656403,82.776871 263.100342,77.878044 
	C263.643127,71.888557 267.215454,68.045532 272.861176,66.104385 
	C273.627533,65.840889 274.406616,65.614380 275.569092,65.229439 
z"/>
<path fill="#000000" opacity="1.000000" stroke="none" 
	d="
M379.364288,225.861847 
	C378.484253,220.428375 378.069458,215.080460 377.624908,209.349579 
	C389.644989,209.349579 400.881775,209.349579 412.560547,209.349579 
	C412.560547,214.583374 412.560547,219.945999 412.560547,225.947418 
	C401.660767,225.947418 390.745117,225.947418 379.364288,225.861847 
z"/>
<path fill="#000000" opacity="1.000000" stroke="none" 
	d="
M355.215942,381.478363 
	C352.338898,374.593811 352.262878,368.459961 357.513702,362.950439 
	C360.673004,359.635529 367.670380,357.925507 373.463867,360.820465 
	C378.296112,363.235107 381.518036,369.072784 380.986694,374.790039 
	C380.411713,380.976593 376.394135,385.434082 370.605591,387.074280 
	C364.175659,388.896210 359.446167,386.504730 355.215942,381.478363 
z"/>
<path fill="#000000" opacity="1.000000" stroke="none" 
	d="
M183.465714,231.749191 
	C179.595764,228.663116 180.762741,225.938019 184.325378,225.074265 
	C190.447083,223.590057 196.779465,222.500717 203.056442,222.304855 
	C206.956253,222.183167 210.987930,223.800766 214.810593,225.084030 
	C216.092957,225.514526 217.718216,227.324753 217.716965,228.502747 
	C217.715698,229.681442 216.038086,231.655304 214.817139,231.901566 
	C208.624756,233.150589 202.357681,234.530762 196.085114,234.701447 
	C192.020767,234.812027 187.902100,232.926041 183.465714,231.749191 
z"/>
<path fill="#000000" opacity="1.000000" stroke="none" 
	d="
M492.506622,63.232063 
	C500.908539,68.391060 497.573242,79.424858 488.452454,81.349388 
	C482.203644,82.667900 476.188721,83.184631 470.069946,81.519714 
	C463.870483,79.832825 460.270508,75.878708 460.426361,71.272987 
	C460.580658,66.713333 464.527252,62.657154 470.537964,61.270321 
	C477.904449,59.570683 485.165680,59.922192 492.506622,63.232063 
z"/>
<path fill="#000000" opacity="1.000000" stroke="none" 
	d="
M585.000000,264.962616 
	C585.000000,267.738190 585.000000,270.033539 585.000000,272.662048 
	C572.997620,272.662048 561.429077,272.662048 549.428955,272.662048 
	C549.428955,267.059845 549.428955,261.365173 549.428955,255.331146 
	C561.015808,255.331146 572.584351,255.331146 585.000000,255.331146 
	C585.000000,258.329895 585.000000,261.406158 585.000000,264.962616 
z"/>
<path fill="#000000" opacity="1.000000" stroke="none" 
	d="
M461.001587,423.000000 
	C455.212006,423.000000 449.921814,423.000000 444.322632,423.000000 
	C444.322632,420.294678 444.322632,418.040314 444.322632,415.391174 
	C455.955811,415.391174 467.655029,415.391174 479.677246,415.391174 
	C479.677246,417.705078 479.677246,419.959442 479.677246,423.000000 
	C473.676575,423.000000 467.588776,423.000000 461.001587,423.000000 
z"/>
<path fill="#000000" opacity="1.000000" stroke="none" 
	d="
M122.996674,255.000000 
	C128.448853,255.000000 133.402191,255.000000 138.673462,255.000000 
	C138.673462,261.031738 138.673462,266.606018 138.673462,272.592712 
	C127.022774,272.592712 115.340126,272.592712 103.326515,272.592712 
	C103.326515,266.968597 103.326515,261.394806 103.326515,255.000000 
	C109.680832,255.000000 116.089340,255.000000 122.996674,255.000000 
z"/>
<path fill="#000000" opacity="1.000000" stroke="none" 
	d="
M213.415710,273.787689 
	C204.156021,276.450134 195.250961,276.349976 186.393753,273.934418 
	C183.470901,273.137268 180.903137,271.878387 180.935547,267.952118 
	C180.967972,264.028809 183.560745,262.832825 186.486481,262.050262 
	C195.178314,259.725433 204.001999,259.225616 212.580338,262.181274 
	C215.045334,263.030609 217.892654,265.460358 218.581055,267.759430 
	C218.989227,269.122650 215.520889,271.646637 213.415710,273.787689 
z"/>
<path fill="#000000" opacity="1.000000" stroke="none" 
	d="
M651.096436,225.018265 
	C643.209778,227.214706 636.312195,225.134689 629.797913,221.828293 
	C625.984192,219.892593 626.122314,215.111771 629.969482,213.085907 
	C639.703796,207.960037 649.835693,207.891907 659.828430,212.138840 
	C661.665222,212.919464 663.579773,215.708832 663.697021,217.675980 
	C663.797485,219.362000 661.736938,221.882172 659.985107,222.804794 
	C657.477295,224.125473 654.380310,224.327332 651.096436,225.018265 
z"/>
<path fill="#000000" opacity="1.000000" stroke="none" 
	d="
M454.469849,375.239075 
	C458.677155,376.386688 461.717346,378.705414 461.400543,382.735291 
	C461.058075,387.091705 457.782104,389.096497 453.409912,390.139587 
	C448.425751,391.328613 443.885193,390.843750 439.800293,388.187714 
	C438.064758,387.059235 436.751343,384.677765 436.118652,382.600037 
	C435.197510,379.575195 437.254913,377.839447 439.884918,376.515381 
	C444.484131,374.199829 449.153503,373.529266 454.469849,375.239075 
z"/>
</svg>